{
	"asset":{
		"generator":"Khronos glTF Blender I/O v3.6.27",
		"version":"2.0"
	},
	"scene":0,
	"scenes":[
		{
			"name":"Scene",
			"nodes":[
				0
			]
		}
	],
	"nodes":[
		{
			"mesh":0,
			"name":"Esfera",
			"rotation":[
				0,
				0,
				0,
				0
			],
			"scale":[
				1,
				1,
				1
			],
			"translation":[
				0,
				0,
				0
			]
		}
	],
	"materials":[
		{
			"doubleSided":true,
			"name":"Material.006",
			"pbrMetallicRoughness":{
				"baseColorFactor":[
					0.16826851665973663,
					0.4910202920436859,
					0.7991028428077698,
					1
				],
				"metallicFactor":0,
				"roughnessFactor":0.5
			}
		},
		{
			"doubleSided":true,
			"name":"Material.005",
			"pbrMetallicRoughness":{
				"baseColorFactor":[
					0.02962004765868187,
					0.05556660145521164,
					0.8000000715255737,
					1
				],
				"metallicFactor":0,
				"roughnessFactor":0.5
			}
		},
		{
			"doubleSided":true,
			"name":"Material.002",
			"pbrMetallicRoughness":{
				"baseColorFactor":[
					0.16826851665973663,
					0.4910202920436859,
					0.7991028428077698,
					1
				],
				"metallicFactor":0,
				"roughnessFactor":0.5
			}
		},
		{
			"doubleSided":true,
			"name":"Material.001",
			"pbrMetallicRoughness":{
				"baseColorFactor":[
					0.16826851665973663,
					0.4910202920436859,
					0.7991028428077698,
					1
				],
				"metallicFactor":0,
				"roughnessFactor":0.5
			}
		},
		{
			"doubleSided":true,
			"name":"Material.003",
			"pbrMetallicRoughness":{
				"baseColorFactor":[
					0,
					0,
					0,
					1
				],
				"metallicFactor":0,
				"roughnessFactor":0.5
			}
		},
		{
			"doubleSided":true,
			"name":"Material.004",
			"pbrMetallicRoughness":{
				"baseColorFactor":[
					0,
					0,
					0,
					1
				],
				"metallicFactor":0,
				"roughnessFactor":0.5
			}
		}
	],
	"meshes":[
		{
			"name":"Esfera",
			"primitives":[
				{
					"attributes":{
						"POSITION":0,
						"NORMAL":1,
						"TEXCOORD_0":2
					},
					"indices":3,
					"material":0
				},
				{
					"attributes":{
						"POSITION":4,
						"NORMAL":5,
						"TEXCOORD_0":6
					},
					"indices":7,
					"material":1
				},
				{
					"attributes":{
						"POSITION":8,
						"NORMAL":9,
						"TEXCOORD_0":10
					},
					"indices":11,
					"material":2
				},
				{
					"attributes":{
						"POSITION":12,
						"NORMAL":13,
						"TEXCOORD_0":14
					},
					"indices":11,
					"material":3
				},
				{
					"attributes":{
						"POSITION":15,
						"NORMAL":16,
						"TEXCOORD_0":17
					},
					"indices":11,
					"material":4
				},
				{
					"attributes":{
						"POSITION":18,
						"NORMAL":19,
						"TEXCOORD_0":20
					},
					"indices":11,
					"material":5
				}
			]
		}
	],
	"accessors":[
		{
			"bufferView":0,
			"componentType":5126,
			"count":559,
			"max":[
				0.9999997019767761,
				1,
				0.9999993443489075
			],
			"min":[
				-0.9999990463256836,
				-1,
				-1
			],
			"type":"VEC3"
		},
		{
			"bufferView":1,
			"componentType":5126,
			"count":559,
			"type":"VEC3"
		},
		{
			"bufferView":2,
			"componentType":5126,
			"count":559,
			"type":"VEC2"
		},
		{
			"bufferView":3,
			"componentType":5123,
			"count":2880,
			"type":"SCALAR"
		},
		{
			"bufferView":4,
			"componentType":5126,
			"count":162,
			"max":[
				1.2595876455307007,
				0.4073399603366852,
				1.2181370258331299
			],
			"min":[
				-1.2339261770248413,
				-0.14383289217948914,
				-1.2181370258331299
			],
			"type":"VEC3"
		},
		{
			"bufferView":5,
			"componentType":5126,
			"count":162,
			"type":"VEC3"
		},
		{
			"bufferView":6,
			"componentType":5126,
			"count":162,
			"type":"VEC2"
		},
		{
			"bufferView":7,
			"componentType":5123,
			"count":564,
			"type":"SCALAR"
		},
		{
			"bufferView":8,
			"componentType":5126,
			"count":559,
			"max":[
				0.2652418315410614,
				0.4149928689002991,
				1.8374602794647217
			],
			"min":[
				-0.22738096117973328,
				-0.09080423414707184,
				1.3307969570159912
			],
			"type":"VEC3"
		},
		{
			"bufferView":9,
			"componentType":5126,
			"count":559,
			"type":"VEC3"
		},
		{
			"bufferView":10,
			"componentType":5126,
			"count":559,
			"type":"VEC2"
		},
		{
			"bufferView":11,
			"componentType":5123,
			"count":2880,
			"type":"SCALAR"
		},
		{
			"bufferView":12,
			"componentType":5126,
			"count":559,
			"max":[
				0.2652418315410614,
				0.4149928689002991,
				-1.3315441608428955
			],
			"min":[
				-0.22738096117973328,
				-0.09080423414707184,
				-1.838207483291626
			],
			"type":"VEC3"
		},
		{
			"bufferView":13,
			"componentType":5126,
			"count":559,
			"type":"VEC3"
		},
		{
			"bufferView":14,
			"componentType":5126,
			"count":559,
			"type":"VEC2"
		},
		{
			"bufferView":15,
			"componentType":5126,
			"count":559,
			"max":[
				-0.04346369206905365,
				1.075195074081421,
				0.3180866241455078
			],
			"min":[
				-0.31493812799453735,
				0.8787514567375183,
				0.10054206848144531
			],
			"type":"VEC3"
		},
		{
			"bufferView":16,
			"componentType":5126,
			"count":559,
			"type":"VEC3"
		},
		{
			"bufferView":17,
			"componentType":5126,
			"count":559,
			"type":"VEC2"
		},
		{
			"bufferView":18,
			"componentType":5126,
			"count":559,
			"max":[
				-0.04346369206905365,
				1.075195074081421,
				-0.0842619240283966
			],
			"min":[
				-0.31493812799453735,
				0.8787514567375183,
				-0.3018065094947815
			],
			"type":"VEC3"
		},
		{
			"bufferView":19,
			"componentType":5126,
			"count":559,
			"type":"VEC3"
		},
		{
			"bufferView":20,
			"componentType":5126,
			"count":559,
			"type":"VEC2"
		}
	],
	"bufferViews":[
		{
			"buffer":0,
			"byteLength":6708,
			"byteOffset":0,
			"target":34962
		},
		{
			"buffer":0,
			"byteLength":6708,
			"byteOffset":6708,
			"target":34962
		},
		{
			"buffer":0,
			"byteLength":4472,
			"byteOffset":13416,
			"target":34962
		},
		{
			"buffer":0,
			"byteLength":5760,
			"byteOffset":17888,
			"target":34963
		},
		{
			"buffer":0,
			"byteLength":1944,
			"byteOffset":23648,
			"target":34962
		},
		{
			"buffer":0,
			"byteLength":1944,
			"byteOffset":25592,
			"target":34962
		},
		{
			"buffer":0,
			"byteLength":1296,
			"byteOffset":27536,
			"target":34962
		},
		{
			"buffer":0,
			"byteLength":1128,
			"byteOffset":28832,
			"target":34963
		},
		{
			"buffer":0,
			"byteLength":6708,
			"byteOffset":29960,
			"target":34962
		},
		{
			"buffer":0,
			"byteLength":6708,
			"byteOffset":36668,
			"target":34962
		},
		{
			"buffer":0,
			"byteLength":4472,
			"byteOffset":43376,
			"target":34962
		},
		{
			"buffer":0,
			"byteLength":5760,
			"byteOffset":47848,
			"target":34963
		},
		{
			"buffer":0,
			"byteLength":6708,
			"byteOffset":53608,
			"target":34962
		},
		{
			"buffer":0,
			"byteLength":6708,
			"byteOffset":60316,
			"target":34962
		},
		{
			"buffer":0,
			"byteLength":4472,
			"byteOffset":67024,
			"target":34962
		},
		{
			"buffer":0,
			"byteLength":6708,
			"byteOffset":71496,
			"target":34962
		},
		{
			"buffer":0,
			"byteLength":6708,
			"byteOffset":78204,
			"target":34962
		},
		{
			"buffer":0,
			"byteLength":4472,
			"byteOffset":84912,
			"target":34962
		},
		{
			"buffer":0,
			"byteLength":6708,
			"byteOffset":89384,
			"target":34962
		},
		{
			"buffer":0,
			"byteLength":6708,
			"byteOffset":96092,
			"target":34962
		},
		{
			"buffer":0,
			"byteLength":4472,
			"byteOffset":102800,
			"target":34962
		}
	],
	"buffers":[
		{
			"byteLength":107272,
			"uri":"bolita_avatar.bin"
		}
	]
}
