{
	"asset":{
		"generator":"Khronos glTF Blender I/O v3.6.27",
		"version":"2.0"
	},
	"scene":0,
	"scenes":[
		{
			"name":"Scene",
			"nodes":[
				0
			]
		}
	],
	"nodes":[
		{
			"mesh":0,
			"name":"Esfera",
			"scale":[
				0.4423596262931824,
				0.4436737596988678,
				0.4489876329898834
			],
			"translation":[
				0,
				2.5948729515075684,
				0
			]
		}
	],
	"materials":[
		{
			"doubleSided":true,
			"name":"Material.003",
			"pbrMetallicRoughness":{
				"baseColorFactor":[
					0.34670335054397583,
					0.7991025447845459,
					0.24228127300739288,
					1
				],
				"metallicFactor":0,
				"roughnessFactor":0.5
			}
		},
		{
			"doubleSided":true,
			"name":"Material.009",
			"pbrMetallicRoughness":{
				"baseColorFactor":[
					0.7991029024124146,
					0.3324512541294098,
					0.06480336934328079,
					1
				],
				"metallicFactor":0,
				"roughnessFactor":0.5
			}
		},
		{
			"doubleSided":true,
			"name":"Material.008",
			"pbrMetallicRoughness":{
				"baseColorFactor":[
					0.7991029024124146,
					0.3324512541294098,
					0.06480336934328079,
					1
				],
				"metallicFactor":0,
				"roughnessFactor":0.5
			}
		},
		{
			"doubleSided":true,
			"name":"Material.006",
			"pbrMetallicRoughness":{
				"baseColorFactor":[
					0.7991029024124146,
					0.3324512541294098,
					0.06480336934328079,
					1
				],
				"metallicFactor":0,
				"roughnessFactor":0.5
			}
		},
		{
			"doubleSided":true,
			"name":"Material.007",
			"pbrMetallicRoughness":{
				"baseColorFactor":[
					0.7991029024124146,
					0.3324512541294098,
					0.06480336934328079,
					1
				],
				"metallicFactor":0,
				"roughnessFactor":0.5
			}
		},
		{
			"doubleSided":true,
			"name":"Material.001",
			"pbrMetallicRoughness":{
				"baseColorFactor":[
					0,
					0,
					0,
					1
				],
				"metallicFactor":0,
				"roughnessFactor":0.5
			}
		},
		{
			"doubleSided":true,
			"name":"Material.002",
			"pbrMetallicRoughness":{
				"baseColorFactor":[
					0,
					0,
					0,
					1
				],
				"metallicFactor":0,
				"roughnessFactor":0.5
			}
		},
		{
			"doubleSided":true,
			"name":"Material.005",
			"pbrMetallicRoughness":{
				"baseColorFactor":[
					0.34670335054397583,
					0.7991025447845459,
					0.24228127300739288,
					1
				],
				"metallicFactor":0,
				"roughnessFactor":0.5
			}
		},
		{
			"doubleSided":true,
			"name":"Material.004",
			"pbrMetallicRoughness":{
				"baseColorFactor":[
					0.34670335054397583,
					0.7991025447845459,
					0.24228127300739288,
					1
				],
				"metallicFactor":0,
				"roughnessFactor":0.5
			}
		}
	],
	"meshes":[
		{
			"name":"Esfera",
			"primitives":[
				{
					"attributes":{
						"POSITION":0,
						"NORMAL":1,
						"TEXCOORD_0":2
					},
					"indices":3,
					"material":0
				},
				{
					"attributes":{
						"POSITION":4,
						"NORMAL":5,
						"TEXCOORD_0":6
					},
					"indices":3,
					"material":1
				},
				{
					"attributes":{
						"POSITION":7,
						"NORMAL":8,
						"TEXCOORD_0":9
					},
					"indices":3,
					"material":2
				},
				{
					"attributes":{
						"POSITION":10,
						"NORMAL":11,
						"TEXCOORD_0":12
					},
					"indices":3,
					"material":3
				},
				{
					"attributes":{
						"POSITION":13,
						"NORMAL":14,
						"TEXCOORD_0":15
					},
					"indices":3,
					"material":4
				},
				{
					"attributes":{
						"POSITION":16,
						"NORMAL":17,
						"TEXCOORD_0":18
					},
					"indices":19,
					"material":5
				},
				{
					"attributes":{
						"POSITION":20,
						"NORMAL":21,
						"TEXCOORD_0":22
					},
					"indices":19,
					"material":6
				},
				{
					"attributes":{
						"POSITION":23,
						"NORMAL":24,
						"TEXCOORD_0":25
					},
					"indices":26,
					"material":7
				},
				{
					"attributes":{
						"POSITION":27,
						"NORMAL":28,
						"TEXCOORD_0":29
					},
					"indices":26,
					"material":8
				}
			]
		}
	],
	"accessors":[
		{
			"bufferView":0,
			"componentType":5126,
			"count":892,
			"max":[
				1.1174839735031128,
				1,
				1.113559365272522
			],
			"min":[
				-1.1174839735031128,
				-3.83311128616333,
				-1.113559365272522
			],
			"type":"VEC3"
		},
		{
			"bufferView":1,
			"componentType":5126,
			"count":892,
			"type":"VEC3"
		},
		{
			"bufferView":2,
			"componentType":5126,
			"count":892,
			"type":"VEC2"
		},
		{
			"bufferView":3,
			"componentType":5123,
			"count":4020,
			"type":"SCALAR"
		},
		{
			"bufferView":4,
			"componentType":5126,
			"count":892,
			"max":[
				-0.4201939105987549,
				-3.2862236499786377,
				0.21156089007854462
			],
			"min":[
				-0.8511689901351929,
				-4.215445518493652,
				-0.21156089007854462
			],
			"type":"VEC3"
		},
		{
			"bufferView":5,
			"componentType":5126,
			"count":892,
			"type":"VEC3"
		},
		{
			"bufferView":6,
			"componentType":5126,
			"count":892,
			"type":"VEC2"
		},
		{
			"bufferView":7,
			"componentType":5126,
			"count":892,
			"max":[
				0.9294347167015076,
				-3.2862236499786377,
				0.21156089007854462
			],
			"min":[
				0.4984596371650696,
				-4.215445518493652,
				-0.21156089007854462
			],
			"type":"VEC3"
		},
		{
			"bufferView":8,
			"componentType":5126,
			"count":892,
			"type":"VEC3"
		},
		{
			"bufferView":9,
			"componentType":5126,
			"count":892,
			"type":"VEC2"
		},
		{
			"bufferView":10,
			"componentType":5126,
			"count":892,
			"max":[
				0.657965362071991,
				1.1886000633239746,
				0.21156086027622223
			],
			"min":[
				0.22699026763439178,
				0.2593780755996704,
				-0.21156112849712372
			],
			"type":"VEC3"
		},
		{
			"bufferView":11,
			"componentType":5126,
			"count":892,
			"type":"VEC3"
		},
		{
			"bufferView":12,
			"componentType":5126,
			"count":892,
			"type":"VEC2"
		},
		{
			"bufferView":13,
			"componentType":5126,
			"count":892,
			"max":[
				-0.21203722059726715,
				1.2072639465332031,
				0.21156086027622223
			],
			"min":[
				-0.6430123448371887,
				0.2780419588088989,
				-0.21156112849712372
			],
			"type":"VEC3"
		},
		{
			"bufferView":14,
			"componentType":5126,
			"count":892,
			"type":"VEC3"
		},
		{
			"bufferView":15,
			"componentType":5126,
			"count":892,
			"type":"VEC2"
		},
		{
			"bufferView":16,
			"componentType":5126,
			"count":559,
			"max":[
				-0.11998985707759857,
				0.08460411429405212,
				1.140555500984192
			],
			"min":[
				-0.453361451625824,
				-0.3897951543331146,
				0.782152533531189
			],
			"type":"VEC3"
		},
		{
			"bufferView":17,
			"componentType":5126,
			"count":559,
			"type":"VEC3"
		},
		{
			"bufferView":18,
			"componentType":5126,
			"count":559,
			"type":"VEC2"
		},
		{
			"bufferView":19,
			"componentType":5123,
			"count":2880,
			"type":"SCALAR"
		},
		{
			"bufferView":20,
			"componentType":5126,
			"count":559,
			"max":[
				0.46637749671936035,
				0.08460411429405212,
				1.140555500984192
			],
			"min":[
				0.13300590217113495,
				-0.3897951543331146,
				0.782152533531189
			],
			"type":"VEC3"
		},
		{
			"bufferView":21,
			"componentType":5126,
			"count":559,
			"type":"VEC3"
		},
		{
			"bufferView":22,
			"componentType":5126,
			"count":559,
			"type":"VEC2"
		},
		{
			"bufferView":23,
			"componentType":5126,
			"count":559,
			"max":[
				-0.3456815481185913,
				1.5256816148757935,
				0.12050598859786987
			],
			"min":[
				-0.5903044939041138,
				1.2817829847335815,
				-0.1205059066414833
			],
			"type":"VEC3"
		},
		{
			"bufferView":24,
			"componentType":5126,
			"count":559,
			"type":"VEC3"
		},
		{
			"bufferView":25,
			"componentType":5126,
			"count":559,
			"type":"VEC2"
		},
		{
			"bufferView":26,
			"componentType":5123,
			"count":2880,
			"type":"SCALAR"
		},
		{
			"bufferView":27,
			"componentType":5126,
			"count":559,
			"max":[
				0.5715848803520203,
				1.5070172548294067,
				0.12050598859786987
			],
			"min":[
				0.3269619047641754,
				1.2631186246871948,
				-0.1205059066414833
			],
			"type":"VEC3"
		},
		{
			"bufferView":28,
			"componentType":5126,
			"count":559,
			"type":"VEC3"
		},
		{
			"bufferView":29,
			"componentType":5126,
			"count":559,
			"type":"VEC2"
		}
	],
	"bufferViews":[
		{
			"buffer":0,
			"byteLength":10704,
			"byteOffset":0,
			"target":34962
		},
		{
			"buffer":0,
			"byteLength":10704,
			"byteOffset":10704,
			"target":34962
		},
		{
			"buffer":0,
			"byteLength":7136,
			"byteOffset":21408,
			"target":34962
		},
		{
			"buffer":0,
			"byteLength":8040,
			"byteOffset":28544,
			"target":34963
		},
		{
			"buffer":0,
			"byteLength":10704,
			"byteOffset":36584,
			"target":34962
		},
		{
			"buffer":0,
			"byteLength":10704,
			"byteOffset":47288,
			"target":34962
		},
		{
			"buffer":0,
			"byteLength":7136,
			"byteOffset":57992,
			"target":34962
		},
		{
			"buffer":0,
			"byteLength":10704,
			"byteOffset":65128,
			"target":34962
		},
		{
			"buffer":0,
			"byteLength":10704,
			"byteOffset":75832,
			"target":34962
		},
		{
			"buffer":0,
			"byteLength":7136,
			"byteOffset":86536,
			"target":34962
		},
		{
			"buffer":0,
			"byteLength":10704,
			"byteOffset":93672,
			"target":34962
		},
		{
			"buffer":0,
			"byteLength":10704,
			"byteOffset":104376,
			"target":34962
		},
		{
			"buffer":0,
			"byteLength":7136,
			"byteOffset":115080,
			"target":34962
		},
		{
			"buffer":0,
			"byteLength":10704,
			"byteOffset":122216,
			"target":34962
		},
		{
			"buffer":0,
			"byteLength":10704,
			"byteOffset":132920,
			"target":34962
		},
		{
			"buffer":0,
			"byteLength":7136,
			"byteOffset":143624,
			"target":34962
		},
		{
			"buffer":0,
			"byteLength":6708,
			"byteOffset":150760,
			"target":34962
		},
		{
			"buffer":0,
			"byteLength":6708,
			"byteOffset":157468,
			"target":34962
		},
		{
			"buffer":0,
			"byteLength":4472,
			"byteOffset":164176,
			"target":34962
		},
		{
			"buffer":0,
			"byteLength":5760,
			"byteOffset":168648,
			"target":34963
		},
		{
			"buffer":0,
			"byteLength":6708,
			"byteOffset":174408,
			"target":34962
		},
		{
			"buffer":0,
			"byteLength":6708,
			"byteOffset":181116,
			"target":34962
		},
		{
			"buffer":0,
			"byteLength":4472,
			"byteOffset":187824,
			"target":34962
		},
		{
			"buffer":0,
			"byteLength":6708,
			"byteOffset":192296,
			"target":34962
		},
		{
			"buffer":0,
			"byteLength":6708,
			"byteOffset":199004,
			"target":34962
		},
		{
			"buffer":0,
			"byteLength":4472,
			"byteOffset":205712,
			"target":34962
		},
		{
			"buffer":0,
			"byteLength":5760,
			"byteOffset":210184,
			"target":34963
		},
		{
			"buffer":0,
			"byteLength":6708,
			"byteOffset":215944,
			"target":34962
		},
		{
			"buffer":0,
			"byteLength":6708,
			"byteOffset":222652,
			"target":34962
		},
		{
			"buffer":0,
			"byteLength":4472,
			"byteOffset":229360,
			"target":34962
		}
	],
	"buffers":[
		{
			"byteLength":233832,
			"uri":"cilindrito_avatar.bin"
		}
	]
}
