{
	"asset":{
		"generator":"Khronos glTF Blender I/O v3.6.27",
		"version":"2.0"
	},
	"scene":0,
	"scenes":[
		{
			"name":"Scene",
			"nodes":[
				0
			]
		}
	],
	"nodes":[
		{
			"mesh":0,
			"name":"Cilindro",
			"rotation":[
				0.7071068286895752,
				0,
				0,
				0.7071068286895752
			],
			"scale":[
				0.5094584226608276,
				0.8600305914878845,
				0.47944343090057373
			],
			"translation":[
				0,
				3.3342247009277344,
				0
			]
		}
	],
	"materials":[
		{
			"doubleSided":true,
			"name":"Material.007",
			"pbrMetallicRoughness":{
				"baseColorFactor":[
					0.7835373878479004,
					0.7991025447845459,
					0.06480349600315094,
					1
				],
				"metallicFactor":0,
				"roughnessFactor":0.5
			}
		},
		{
			"doubleSided":true,
			"name":"Material.006",
			"pbrMetallicRoughness":{
				"baseColorFactor":[
					0.7991025447845459,
					0.2622501254081726,
					0.7681511640548706,
					1
				],
				"metallicFactor":0,
				"roughnessFactor":0.5
			}
		},
		{
			"doubleSided":true,
			"name":"Material.005",
			"pbrMetallicRoughness":{
				"baseColorFactor":[
					0.7991025447845459,
					0.2622501254081726,
					0.7681511640548706,
					1
				],
				"metallicFactor":0,
				"roughnessFactor":0.5
			}
		},
		{
			"doubleSided":true,
			"name":"Material.004",
			"pbrMetallicRoughness":{
				"baseColorFactor":[
					0.7991025447845459,
					0.2622501254081726,
					0.7681511640548706,
					1
				],
				"metallicFactor":0,
				"roughnessFactor":0.5
			}
		},
		{
			"doubleSided":true,
			"name":"Material.002",
			"pbrMetallicRoughness":{
				"baseColorFactor":[
					0,
					0,
					0,
					1
				],
				"metallicFactor":0,
				"roughnessFactor":0.5
			}
		},
		{
			"doubleSided":true,
			"name":"Material.001",
			"pbrMetallicRoughness":{
				"baseColorFactor":[
					0,
					0,
					0,
					1
				],
				"metallicFactor":0,
				"roughnessFactor":0.5
			}
		},
		{
			"doubleSided":true,
			"name":"Material.008",
			"pbrMetallicRoughness":{
				"baseColorFactor":[
					0.7835373878479004,
					0.7991025447845459,
					0.06480349600315094,
					1
				],
				"metallicFactor":0,
				"roughnessFactor":0.5
			}
		},
		{
			"doubleSided":true,
			"name":"Material.009",
			"pbrMetallicRoughness":{
				"baseColorFactor":[
					0.8000000715255737,
					0.26082175970077515,
					0.7690832018852234,
					1
				],
				"metallicFactor":0,
				"roughnessFactor":0.5
			}
		},
		{
			"doubleSided":true,
			"name":"Material.010",
			"pbrMetallicRoughness":{
				"baseColorFactor":[
					0.7991025447845459,
					0.2622501254081726,
					0.7681511640548706,
					1
				],
				"metallicFactor":0,
				"roughnessFactor":0.5
			}
		}
	],
	"meshes":[
		{
			"name":"Cilindro",
			"primitives":[
				{
					"attributes":{
						"POSITION":0,
						"NORMAL":1,
						"TEXCOORD_0":2
					},
					"indices":3,
					"material":0
				},
				{
					"attributes":{
						"POSITION":4,
						"NORMAL":5,
						"TEXCOORD_0":6
					},
					"indices":7,
					"material":1
				},
				{
					"attributes":{
						"POSITION":8,
						"NORMAL":9,
						"TEXCOORD_0":10
					},
					"indices":7,
					"material":2
				},
				{
					"attributes":{
						"POSITION":11,
						"NORMAL":12,
						"TEXCOORD_0":13
					},
					"indices":7,
					"material":3
				},
				{
					"attributes":{
						"POSITION":14,
						"NORMAL":15,
						"TEXCOORD_0":16
					},
					"indices":17,
					"material":4
				},
				{
					"attributes":{
						"POSITION":18,
						"NORMAL":19,
						"TEXCOORD_0":20
					},
					"indices":17,
					"material":5
				},
				{
					"attributes":{
						"POSITION":21,
						"NORMAL":22,
						"TEXCOORD_0":23
					},
					"indices":7,
					"material":6
				},
				{
					"attributes":{
						"POSITION":24,
						"NORMAL":25,
						"TEXCOORD_0":26
					},
					"indices":3,
					"material":7
				},
				{
					"attributes":{
						"POSITION":27,
						"NORMAL":28,
						"TEXCOORD_0":29
					},
					"indices":3,
					"material":8
				}
			]
		}
	],
	"accessors":[
		{
			"bufferView":0,
			"componentType":5126,
			"count":130,
			"max":[
				1,
				1,
				1
			],
			"min":[
				-1,
				-1,
				-1
			],
			"type":"VEC3"
		},
		{
			"bufferView":1,
			"componentType":5126,
			"count":130,
			"type":"VEC3"
		},
		{
			"bufferView":2,
			"componentType":5126,
			"count":130,
			"type":"VEC2"
		},
		{
			"bufferView":3,
			"componentType":5123,
			"count":372,
			"type":"SCALAR"
		},
		{
			"bufferView":4,
			"componentType":5126,
			"count":24,
			"max":[
				0.5845444798469543,
				1.1236138343811035,
				0.6698213815689087
			],
			"min":[
				-0.5845444798469543,
				0.4310776889324188,
				-0.5724570751190186
			],
			"type":"VEC3"
		},
		{
			"bufferView":5,
			"componentType":5126,
			"count":24,
			"type":"VEC3"
		},
		{
			"bufferView":6,
			"componentType":5126,
			"count":24,
			"type":"VEC2"
		},
		{
			"bufferView":7,
			"componentType":5123,
			"count":36,
			"type":"SCALAR"
		},
		{
			"bufferView":8,
			"componentType":5126,
			"count":24,
			"max":[
				0.5845444798469543,
				-0.43440285325050354,
				0.6698215007781982
			],
			"min":[
				-0.5845444798469543,
				-1.126939058303833,
				-0.572456955909729
			],
			"type":"VEC3"
		},
		{
			"bufferView":9,
			"componentType":5126,
			"count":24,
			"type":"VEC3"
		},
		{
			"bufferView":10,
			"componentType":5126,
			"count":24,
			"type":"VEC2"
		},
		{
			"bufferView":11,
			"componentType":5126,
			"count":24,
			"max":[
				0.3915672302246094,
				0.2319537103176117,
				1.997426986694336
			],
			"min":[
				-0.3915672302246094,
				-0.23195362091064453,
				1.1652650833129883
			],
			"type":"VEC3"
		},
		{
			"bufferView":12,
			"componentType":5126,
			"count":24,
			"type":"VEC3"
		},
		{
			"bufferView":13,
			"componentType":5126,
			"count":24,
			"type":"VEC2"
		},
		{
			"bufferView":14,
			"componentType":5126,
			"count":559,
			"max":[
				1.0316637754440308,
				0.2836180329322815,
				-2.2228035926818848
			],
			"min":[
				0.7699388265609741,
				0.06384045630693436,
				-2.7727208137512207
			],
			"type":"VEC3"
		},
		{
			"bufferView":15,
			"componentType":5126,
			"count":559,
			"type":"VEC3"
		},
		{
			"bufferView":16,
			"componentType":5126,
			"count":559,
			"type":"VEC2"
		},
		{
			"bufferView":17,
			"componentType":5123,
			"count":2880,
			"type":"SCALAR"
		},
		{
			"bufferView":18,
			"componentType":5126,
			"count":559,
			"max":[
				1.0316637754440308,
				-0.08132749050855637,
				-2.2228035926818848
			],
			"min":[
				0.7699388265609741,
				-0.3011050820350647,
				-2.7727208137512207
			],
			"type":"VEC3"
		},
		{
			"bufferView":19,
			"componentType":5126,
			"count":559,
			"type":"VEC3"
		},
		{
			"bufferView":20,
			"componentType":5126,
			"count":559,
			"type":"VEC2"
		},
		{
			"bufferView":21,
			"componentType":5126,
			"count":24,
			"max":[
				0.16814443469047546,
				0.09960410743951797,
				-0.9470333456993103
			],
			"min":[
				-0.16814443469047546,
				-0.09960416704416275,
				-1.304375171661377
			],
			"type":"VEC3"
		},
		{
			"bufferView":22,
			"componentType":5126,
			"count":24,
			"type":"VEC3"
		},
		{
			"bufferView":23,
			"componentType":5126,
			"count":24,
			"type":"VEC2"
		},
		{
			"bufferView":24,
			"componentType":5126,
			"count":130,
			"max":[
				0.22979262471199036,
				0.8680317401885986,
				-2.7155394554138184
			],
			"min":[
				-0.22979262471199036,
				0.5991885662078857,
				-3.1751246452331543
			],
			"type":"VEC3"
		},
		{
			"bufferView":25,
			"componentType":5126,
			"count":130,
			"type":"VEC3"
		},
		{
			"bufferView":26,
			"componentType":5126,
			"count":130,
			"type":"VEC2"
		},
		{
			"bufferView":27,
			"componentType":5126,
			"count":130,
			"max":[
				0.22979262471199036,
				-0.597912073135376,
				-2.7155394554138184
			],
			"min":[
				-0.22979262471199036,
				-0.8667552471160889,
				-3.1751246452331543
			],
			"type":"VEC3"
		},
		{
			"bufferView":28,
			"componentType":5126,
			"count":130,
			"type":"VEC3"
		},
		{
			"bufferView":29,
			"componentType":5126,
			"count":130,
			"type":"VEC2"
		}
	],
	"bufferViews":[
		{
			"buffer":0,
			"byteLength":1560,
			"byteOffset":0,
			"target":34962
		},
		{
			"buffer":0,
			"byteLength":1560,
			"byteOffset":1560,
			"target":34962
		},
		{
			"buffer":0,
			"byteLength":1040,
			"byteOffset":3120,
			"target":34962
		},
		{
			"buffer":0,
			"byteLength":744,
			"byteOffset":4160,
			"target":34963
		},
		{
			"buffer":0,
			"byteLength":288,
			"byteOffset":4904,
			"target":34962
		},
		{
			"buffer":0,
			"byteLength":288,
			"byteOffset":5192,
			"target":34962
		},
		{
			"buffer":0,
			"byteLength":192,
			"byteOffset":5480,
			"target":34962
		},
		{
			"buffer":0,
			"byteLength":72,
			"byteOffset":5672,
			"target":34963
		},
		{
			"buffer":0,
			"byteLength":288,
			"byteOffset":5744,
			"target":34962
		},
		{
			"buffer":0,
			"byteLength":288,
			"byteOffset":6032,
			"target":34962
		},
		{
			"buffer":0,
			"byteLength":192,
			"byteOffset":6320,
			"target":34962
		},
		{
			"buffer":0,
			"byteLength":288,
			"byteOffset":6512,
			"target":34962
		},
		{
			"buffer":0,
			"byteLength":288,
			"byteOffset":6800,
			"target":34962
		},
		{
			"buffer":0,
			"byteLength":192,
			"byteOffset":7088,
			"target":34962
		},
		{
			"buffer":0,
			"byteLength":6708,
			"byteOffset":7280,
			"target":34962
		},
		{
			"buffer":0,
			"byteLength":6708,
			"byteOffset":13988,
			"target":34962
		},
		{
			"buffer":0,
			"byteLength":4472,
			"byteOffset":20696,
			"target":34962
		},
		{
			"buffer":0,
			"byteLength":5760,
			"byteOffset":25168,
			"target":34963
		},
		{
			"buffer":0,
			"byteLength":6708,
			"byteOffset":30928,
			"target":34962
		},
		{
			"buffer":0,
			"byteLength":6708,
			"byteOffset":37636,
			"target":34962
		},
		{
			"buffer":0,
			"byteLength":4472,
			"byteOffset":44344,
			"target":34962
		},
		{
			"buffer":0,
			"byteLength":288,
			"byteOffset":48816,
			"target":34962
		},
		{
			"buffer":0,
			"byteLength":288,
			"byteOffset":49104,
			"target":34962
		},
		{
			"buffer":0,
			"byteLength":192,
			"byteOffset":49392,
			"target":34962
		},
		{
			"buffer":0,
			"byteLength":1560,
			"byteOffset":49584,
			"target":34962
		},
		{
			"buffer":0,
			"byteLength":1560,
			"byteOffset":51144,
			"target":34962
		},
		{
			"buffer":0,
			"byteLength":1040,
			"byteOffset":52704,
			"target":34962
		},
		{
			"buffer":0,
			"byteLength":1560,
			"byteOffset":53744,
			"target":34962
		},
		{
			"buffer":0,
			"byteLength":1560,
			"byteOffset":55304,
			"target":34962
		},
		{
			"buffer":0,
			"byteLength":1040,
			"byteOffset":56864,
			"target":34962
		}
	],
	"buffers":[
		{
			"byteLength":57904,
			"uri":"cuadradin_prueba_colores.bin"
		}
	]
}
