{
	"asset":{
		"generator":"Khronos glTF Blender I/O v3.6.27",
		"version":"2.0"
	},
	"scene":0,
	"scenes":[
		{
			"name":"Scene",
			"nodes":[
				0,
				1,
				2,
				3,
				4,
				5
			]
		}
	],
	"nodes":[
		{
			"mesh":0,
			"name":"Cube.001"
		},
		{
			"mesh":1,
			"name":"Cube.002"
		},
		{
			"mesh":2,
			"name":"Cube.003"
		},
		{
			"mesh":3,
			"name":"Cube.004"
		},
		{
			"mesh":4,
			"name":"Cube.005"
		},
		{
			"mesh":5,
			"name":"Cube.006"
		}
	],
	"materials":[
		{
			"doubleSided":true,
			"name":"Material.001",
			"pbrMetallicRoughness":{
				"baseColorFactor":[
					0.2704974114894867,
					0.5209952592849731,
					0.1470274031162262,
					1
				],
				"metallicFactor":0,
				"roughnessFactor":0.5
			}
		}
	],
	"meshes":[
		{
			"name":"Cube.001",
			"primitives":[
				{
					"attributes":{
						"POSITION":0,
						"NORMAL":1,
						"TEXCOORD_0":2
					},
					"indices":3,
					"material":0
				}
			]
		},
		{
			"name":"Cube.002",
			"primitives":[
				{
					"attributes":{
						"POSITION":4,
						"NORMAL":5,
						"TEXCOORD_0":6
					},
					"indices":7,
					"material":0
				}
			]
		},
		{
			"name":"Cube.003",
			"primitives":[
				{
					"attributes":{
						"POSITION":8,
						"NORMAL":9,
						"TEXCOORD_0":10
					},
					"indices":11,
					"material":0
				}
			]
		},
		{
			"name":"Cube.004",
			"primitives":[
				{
					"attributes":{
						"POSITION":12,
						"NORMAL":13,
						"TEXCOORD_0":14
					},
					"indices":15,
					"material":0
				}
			]
		},
		{
			"name":"Cube.005",
			"primitives":[
				{
					"attributes":{
						"POSITION":16,
						"NORMAL":17,
						"TEXCOORD_0":18
					},
					"indices":19,
					"material":0
				}
			]
		},
		{
			"name":"Cube.006",
			"primitives":[
				{
					"attributes":{
						"POSITION":20,
						"NORMAL":21,
						"TEXCOORD_0":22
					},
					"indices":23,
					"material":0
				}
			]
		}
	],
	"accessors":[
		{
			"bufferView":0,
			"componentType":5126,
			"count":36,
			"max":[
				0.9783646464347839,
				0.9783646464347839,
				1
			],
			"min":[
				-0.9783646464347839,
				-0.9783646464347839,
				0.9687798023223877
			],
			"type":"VEC3"
		},
		{
			"bufferView":1,
			"componentType":5126,
			"count":36,
			"type":"VEC3"
		},
		{
			"bufferView":2,
			"componentType":5126,
			"count":36,
			"type":"VEC2"
		},
		{
			"bufferView":3,
			"componentType":5123,
			"count":150,
			"type":"SCALAR"
		},
		{
			"bufferView":4,
			"componentType":5126,
			"count":36,
			"max":[
				0.9783646464347839,
				0.9783646464347839,
				-0.9687798023223877
			],
			"min":[
				-0.9783646464347839,
				-0.9783646464347839,
				-1
			],
			"type":"VEC3"
		},
		{
			"bufferView":5,
			"componentType":5126,
			"count":36,
			"type":"VEC3"
		},
		{
			"bufferView":6,
			"componentType":5126,
			"count":36,
			"type":"VEC2"
		},
		{
			"bufferView":7,
			"componentType":5123,
			"count":150,
			"type":"SCALAR"
		},
		{
			"bufferView":8,
			"componentType":5126,
			"count":36,
			"max":[
				0.9783646464347839,
				1,
				0.9783646464347839
			],
			"min":[
				-0.9783646464347839,
				0.9687798023223877,
				-0.9783646464347839
			],
			"type":"VEC3"
		},
		{
			"bufferView":9,
			"componentType":5126,
			"count":36,
			"type":"VEC3"
		},
		{
			"bufferView":10,
			"componentType":5126,
			"count":36,
			"type":"VEC2"
		},
		{
			"bufferView":11,
			"componentType":5123,
			"count":150,
			"type":"SCALAR"
		},
		{
			"bufferView":12,
			"componentType":5126,
			"count":36,
			"max":[
				-0.9687798023223877,
				0.9783646464347839,
				0.9783646464347839
			],
			"min":[
				-1,
				-0.9783646464347839,
				-0.9783646464347839
			],
			"type":"VEC3"
		},
		{
			"bufferView":13,
			"componentType":5126,
			"count":36,
			"type":"VEC3"
		},
		{
			"bufferView":14,
			"componentType":5126,
			"count":36,
			"type":"VEC2"
		},
		{
			"bufferView":15,
			"componentType":5123,
			"count":150,
			"type":"SCALAR"
		},
		{
			"bufferView":16,
			"componentType":5126,
			"count":36,
			"max":[
				0.9783646464347839,
				-0.9687798023223877,
				0.9783646464347839
			],
			"min":[
				-0.9783646464347839,
				-1,
				-0.9783646464347839
			],
			"type":"VEC3"
		},
		{
			"bufferView":17,
			"componentType":5126,
			"count":36,
			"type":"VEC3"
		},
		{
			"bufferView":18,
			"componentType":5126,
			"count":36,
			"type":"VEC2"
		},
		{
			"bufferView":19,
			"componentType":5123,
			"count":150,
			"type":"SCALAR"
		},
		{
			"bufferView":20,
			"componentType":5126,
			"count":36,
			"max":[
				1,
				0.9783646464347839,
				0.9783646464347839
			],
			"min":[
				0.9687798023223877,
				-0.9783646464347839,
				-0.9783646464347839
			],
			"type":"VEC3"
		},
		{
			"bufferView":21,
			"componentType":5126,
			"count":36,
			"type":"VEC3"
		},
		{
			"bufferView":22,
			"componentType":5126,
			"count":36,
			"type":"VEC2"
		},
		{
			"bufferView":23,
			"componentType":5123,
			"count":150,
			"type":"SCALAR"
		}
	],
	"bufferViews":[
		{
			"buffer":0,
			"byteLength":432,
			"byteOffset":0,
			"target":34962
		},
		{
			"buffer":0,
			"byteLength":432,
			"byteOffset":432,
			"target":34962
		},
		{
			"buffer":0,
			"byteLength":288,
			"byteOffset":864,
			"target":34962
		},
		{
			"buffer":0,
			"byteLength":300,
			"byteOffset":1152,
			"target":34963
		},
		{
			"buffer":0,
			"byteLength":432,
			"byteOffset":1452,
			"target":34962
		},
		{
			"buffer":0,
			"byteLength":432,
			"byteOffset":1884,
			"target":34962
		},
		{
			"buffer":0,
			"byteLength":288,
			"byteOffset":2316,
			"target":34962
		},
		{
			"buffer":0,
			"byteLength":300,
			"byteOffset":2604,
			"target":34963
		},
		{
			"buffer":0,
			"byteLength":432,
			"byteOffset":2904,
			"target":34962
		},
		{
			"buffer":0,
			"byteLength":432,
			"byteOffset":3336,
			"target":34962
		},
		{
			"buffer":0,
			"byteLength":288,
			"byteOffset":3768,
			"target":34962
		},
		{
			"buffer":0,
			"byteLength":300,
			"byteOffset":4056,
			"target":34963
		},
		{
			"buffer":0,
			"byteLength":432,
			"byteOffset":4356,
			"target":34962
		},
		{
			"buffer":0,
			"byteLength":432,
			"byteOffset":4788,
			"target":34962
		},
		{
			"buffer":0,
			"byteLength":288,
			"byteOffset":5220,
			"target":34962
		},
		{
			"buffer":0,
			"byteLength":300,
			"byteOffset":5508,
			"target":34963
		},
		{
			"buffer":0,
			"byteLength":432,
			"byteOffset":5808,
			"target":34962
		},
		{
			"buffer":0,
			"byteLength":432,
			"byteOffset":6240,
			"target":34962
		},
		{
			"buffer":0,
			"byteLength":288,
			"byteOffset":6672,
			"target":34962
		},
		{
			"buffer":0,
			"byteLength":300,
			"byteOffset":6960,
			"target":34963
		},
		{
			"buffer":0,
			"byteLength":432,
			"byteOffset":7260,
			"target":34962
		},
		{
			"buffer":0,
			"byteLength":432,
			"byteOffset":7692,
			"target":34962
		},
		{
			"buffer":0,
			"byteLength":288,
			"byteOffset":8124,
			"target":34962
		},
		{
			"buffer":0,
			"byteLength":300,
			"byteOffset":8412,
			"target":34963
		}
	],
	"buffers":[
		{
			"byteLength":8712,
			"uri":"cubo_prueba_seis_caras.bin"
		}
	]
}
