{
	"asset":{
		"generator":"Khronos glTF Blender I/O v3.6.27",
		"version":"2.0"
	},
	"scene":0,
	"scenes":[
		{
			"name":"Scene",
			"nodes":[
				0
			]
		}
	],
	"nodes":[
		{
			"mesh":0,
			"name":"Cilindro.001",
			"scale":[
				0.24547140300273895,
				0.5745510458946228,
				0.29744577407836914
			],
			"translation":[
				0,
				1.4137217998504639,
				0
			]
		}
	],
	"materials":[
		{
			"doubleSided":true,
			"name":"Material.010",
			"pbrMetallicRoughness":{
				"baseColorFactor":[
					0.09084112197160721,
					0.4286901354789734,
					0.4396570920944214,
					1
				],
				"metallicFactor":0,
				"roughnessFactor":0.5
			}
		},
		{
			"doubleSided":true,
			"name":"Material.009",
			"pbrMetallicRoughness":{
				"baseColorFactor":[
					0.09084112197160721,
					0.4286901354789734,
					0.4396570920944214,
					1
				],
				"metallicFactor":0,
				"roughnessFactor":0.5
			}
		},
		{
			"doubleSided":true,
			"name":"Material.011",
			"pbrMetallicRoughness":{
				"baseColorFactor":[
					0.7991030812263489,
					0.15592625737190247,
					0,
					1
				],
				"metallicFactor":0,
				"roughnessFactor":0.5
			}
		},
		{
			"doubleSided":true,
			"name":"Material.007",
			"pbrMetallicRoughness":{
				"baseColorFactor":[
					0,
					0,
					0,
					1
				],
				"metallicFactor":0,
				"roughnessFactor":0.5
			}
		},
		{
			"doubleSided":true,
			"name":"Material.008",
			"pbrMetallicRoughness":{
				"baseColorFactor":[
					0,
					0,
					0,
					1
				],
				"metallicFactor":0,
				"roughnessFactor":0.5
			}
		},
		{
			"doubleSided":true,
			"name":"Material.012",
			"pbrMetallicRoughness":{
				"baseColorFactor":[
					0.7991030812263489,
					0.15592625737190247,
					0,
					1
				],
				"metallicFactor":0,
				"roughnessFactor":0.5
			}
		}
	],
	"meshes":[
		{
			"name":"Cilindro.002",
			"primitives":[
				{
					"attributes":{
						"POSITION":0,
						"NORMAL":1,
						"TEXCOORD_0":2
					},
					"indices":3,
					"material":0
				},
				{
					"attributes":{
						"POSITION":4,
						"NORMAL":5,
						"TEXCOORD_0":6
					},
					"indices":3,
					"material":1
				},
				{
					"attributes":{
						"POSITION":7,
						"NORMAL":8,
						"TEXCOORD_0":9
					},
					"indices":10,
					"material":2
				},
				{
					"attributes":{
						"POSITION":11,
						"NORMAL":12,
						"TEXCOORD_0":13
					},
					"indices":14,
					"material":3
				},
				{
					"attributes":{
						"POSITION":15,
						"NORMAL":16,
						"TEXCOORD_0":17
					},
					"indices":14,
					"material":4
				},
				{
					"attributes":{
						"POSITION":18,
						"NORMAL":19,
						"TEXCOORD_0":20
					},
					"indices":21,
					"material":5
				}
			]
		}
	],
	"accessors":[
		{
			"bufferView":0,
			"componentType":5126,
			"count":192,
			"max":[
				1,
				1,
				1
			],
			"min":[
				-1,
				-1,
				-1
			],
			"type":"VEC3"
		},
		{
			"bufferView":1,
			"componentType":5126,
			"count":192,
			"type":"VEC3"
		},
		{
			"bufferView":2,
			"componentType":5126,
			"count":192,
			"type":"VEC2"
		},
		{
			"bufferView":3,
			"componentType":5123,
			"count":372,
			"type":"SCALAR"
		},
		{
			"bufferView":4,
			"componentType":5126,
			"count":192,
			"max":[
				4.073794364929199,
				2.3672807216644287,
				3.361957550048828
			],
			"min":[
				-4.073794364929199,
				0.7568771243095398,
				-3.361957550048828
			],
			"type":"VEC3"
		},
		{
			"bufferView":5,
			"componentType":5126,
			"count":192,
			"type":"VEC3"
		},
		{
			"bufferView":6,
			"componentType":5126,
			"count":192,
			"type":"VEC2"
		},
		{
			"bufferView":7,
			"componentType":5126,
			"count":128,
			"max":[
				4.073794364929199,
				3.7584972381591797,
				3.361957550048828
			],
			"min":[
				-4.073794364929199,
				2.3733932971954346,
				-3.361957550048828
			],
			"type":"VEC3"
		},
		{
			"bufferView":8,
			"componentType":5126,
			"count":128,
			"type":"VEC3"
		},
		{
			"bufferView":9,
			"componentType":5126,
			"count":128,
			"type":"VEC2"
		},
		{
			"bufferView":10,
			"componentType":5123,
			"count":186,
			"type":"SCALAR"
		},
		{
			"bufferView":11,
			"componentType":5126,
			"count":1984,
			"max":[
				4.346131324768066,
				1.9716713428497314,
				1.430299997329712
			],
			"min":[
				3.7195873260498047,
				1.2835214138031006,
				0.5488632917404175
			],
			"type":"VEC3"
		},
		{
			"bufferView":12,
			"componentType":5126,
			"count":1984,
			"type":"VEC3"
		},
		{
			"bufferView":13,
			"componentType":5126,
			"count":1984,
			"type":"VEC2"
		},
		{
			"bufferView":14,
			"componentType":5123,
			"count":2880,
			"type":"SCALAR"
		},
		{
			"bufferView":15,
			"componentType":5126,
			"count":1984,
			"max":[
				4.346131324768066,
				1.9716713428497314,
				-0.5447636842727661
			],
			"min":[
				3.7195873260498047,
				1.2835214138031006,
				-1.4262003898620605
			],
			"type":"VEC3"
		},
		{
			"bufferView":16,
			"componentType":5126,
			"count":1984,
			"type":"VEC3"
		},
		{
			"bufferView":17,
			"componentType":5126,
			"count":1984,
			"type":"VEC2"
		},
		{
			"bufferView":18,
			"componentType":5126,
			"count":1984,
			"max":[
				0.8872630596160889,
				-1.1533979177474976,
				0.7322263121604919
			],
			"min":[
				-0.8872624635696411,
				-1.911547303199768,
				-0.7322267889976501
			],
			"type":"VEC3"
		},
		{
			"bufferView":19,
			"componentType":5126,
			"count":1984,
			"type":"VEC3"
		},
		{
			"bufferView":20,
			"componentType":5126,
			"count":1984,
			"type":"VEC2"
		},
		{
			"bufferView":21,
			"componentType":5123,
			"count":2880,
			"type":"SCALAR"
		}
	],
	"bufferViews":[
		{
			"buffer":0,
			"byteLength":2304,
			"byteOffset":0,
			"target":34962
		},
		{
			"buffer":0,
			"byteLength":2304,
			"byteOffset":2304,
			"target":34962
		},
		{
			"buffer":0,
			"byteLength":1536,
			"byteOffset":4608,
			"target":34962
		},
		{
			"buffer":0,
			"byteLength":744,
			"byteOffset":6144,
			"target":34963
		},
		{
			"buffer":0,
			"byteLength":2304,
			"byteOffset":6888,
			"target":34962
		},
		{
			"buffer":0,
			"byteLength":2304,
			"byteOffset":9192,
			"target":34962
		},
		{
			"buffer":0,
			"byteLength":1536,
			"byteOffset":11496,
			"target":34962
		},
		{
			"buffer":0,
			"byteLength":1536,
			"byteOffset":13032,
			"target":34962
		},
		{
			"buffer":0,
			"byteLength":1536,
			"byteOffset":14568,
			"target":34962
		},
		{
			"buffer":0,
			"byteLength":1024,
			"byteOffset":16104,
			"target":34962
		},
		{
			"buffer":0,
			"byteLength":372,
			"byteOffset":17128,
			"target":34963
		},
		{
			"buffer":0,
			"byteLength":23808,
			"byteOffset":17500,
			"target":34962
		},
		{
			"buffer":0,
			"byteLength":23808,
			"byteOffset":41308,
			"target":34962
		},
		{
			"buffer":0,
			"byteLength":15872,
			"byteOffset":65116,
			"target":34962
		},
		{
			"buffer":0,
			"byteLength":5760,
			"byteOffset":80988,
			"target":34963
		},
		{
			"buffer":0,
			"byteLength":23808,
			"byteOffset":86748,
			"target":34962
		},
		{
			"buffer":0,
			"byteLength":23808,
			"byteOffset":110556,
			"target":34962
		},
		{
			"buffer":0,
			"byteLength":15872,
			"byteOffset":134364,
			"target":34962
		},
		{
			"buffer":0,
			"byteLength":23808,
			"byteOffset":150236,
			"target":34962
		},
		{
			"buffer":0,
			"byteLength":23808,
			"byteOffset":174044,
			"target":34962
		},
		{
			"buffer":0,
			"byteLength":15872,
			"byteOffset":197852,
			"target":34962
		},
		{
			"buffer":0,
			"byteLength":5760,
			"byteOffset":213724,
			"target":34963
		}
	],
	"buffers":[
		{
			"byteLength":219484,
			"uri":"lapicito_avatar.bin"
		}
	]
}
