{
	"asset":{
		"generator":"Khronos glTF Blender I/O v3.6.27",
		"version":"2.0"
	},
	"scene":0,
	"scenes":[
		{
			"name":"Scene",
			"nodes":[
				0,
				1,
				2,
				3,
				4,
				5,
				6
			]
		}
	],
	"nodes":[
		{
			"mesh":0,
			"name":"Cube",
			"rotation":[
				0,
				0.7071068286895752,
				0,
				0.7071068286895752
			],
			"translation":[
				-0.01928955316543579,
				0,
				-0.014013409614562988
			]
		},
		{
			"mesh":1,
			"name":"Cube.004",
			"rotation":[
				0,
				0.7071068286895752,
				0,
				0.7071068286895752
			],
			"translation":[
				-0.01928955316543579,
				0,
				-0.014013409614562988
			]
		},
		{
			"mesh":2,
			"name":"Cube.001",
			"rotation":[
				0,
				0.7071068286895752,
				0,
				0.7071068286895752
			],
			"translation":[
				-0.01928955316543579,
				0,
				-0.014013409614562988
			]
		},
		{
			"mesh":3,
			"name":"Cube.002",
			"rotation":[
				0,
				0.7071068286895752,
				0,
				0.7071068286895752
			],
			"translation":[
				-0.01928955316543579,
				0,
				-0.014013409614562988
			]
		},
		{
			"mesh":4,
			"name":"Cube.003",
			"rotation":[
				0,
				0.7071068286895752,
				0,
				0.7071068286895752
			],
			"translation":[
				-0.01928955316543579,
				0,
				-0.014013409614562988
			]
		},
		{
			"mesh":5,
			"name":"Cube.005",
			"rotation":[
				0,
				0.7071068286895752,
				0,
				0.7071068286895752
			],
			"translation":[
				-0.01928955316543579,
				0,
				-0.014013409614562988
			]
		},
		{
			"mesh":6,
			"name":"Cube.006",
			"rotation":[
				0,
				0.7071068286895752,
				0,
				0.7071068286895752
			],
			"translation":[
				-0.01928955316543579,
				0,
				-0.014013409614562988
			]
		}
	],
	"meshes":[
		{
			"name":"Cube",
			"primitives":[
				{
					"attributes":{
						"POSITION":0,
						"NORMAL":1,
						"TEXCOORD_0":2
					},
					"indices":3
				}
			]
		},
		{
			"name":"Cube.004",
			"primitives":[
				{
					"attributes":{
						"POSITION":4,
						"NORMAL":5,
						"TEXCOORD_0":6
					},
					"indices":7
				}
			]
		},
		{
			"name":"Cube.001",
			"primitives":[
				{
					"attributes":{
						"POSITION":8,
						"NORMAL":9,
						"TEXCOORD_0":10
					},
					"indices":11
				}
			]
		},
		{
			"name":"Cube.002",
			"primitives":[
				{
					"attributes":{
						"POSITION":12,
						"NORMAL":13,
						"TEXCOORD_0":14
					},
					"indices":15
				}
			]
		},
		{
			"name":"Cube.003",
			"primitives":[
				{
					"attributes":{
						"POSITION":16,
						"NORMAL":17,
						"TEXCOORD_0":18
					},
					"indices":15
				}
			]
		},
		{
			"name":"Cube.005",
			"primitives":[
				{
					"attributes":{
						"POSITION":19,
						"NORMAL":20,
						"TEXCOORD_0":21
					},
					"indices":22
				}
			]
		},
		{
			"name":"Cube.006",
			"primitives":[
				{
					"attributes":{
						"POSITION":23,
						"NORMAL":24,
						"TEXCOORD_0":25
					},
					"indices":22
				}
			]
		}
	],
	"accessors":[
		{
			"bufferView":0,
			"componentType":5126,
			"count":88,
			"max":[
				6.10615873336792,
				0.05491405725479126,
				3.71756911277771
			],
			"min":[
				-6.10615873336792,
				-0.05491405725479126,
				-3.717568874359131
			],
			"type":"VEC3"
		},
		{
			"bufferView":1,
			"componentType":5126,
			"count":88,
			"type":"VEC3"
		},
		{
			"bufferView":2,
			"componentType":5126,
			"count":88,
			"type":"VEC2"
		},
		{
			"bufferView":3,
			"componentType":5123,
			"count":240,
			"type":"SCALAR"
		},
		{
			"bufferView":4,
			"componentType":5126,
			"count":4,
			"max":[
				5.915680408477783,
				0.05491405725479126,
				3.5270907878875732
			],
			"min":[
				2.2258644104003906,
				0.05491405725479126,
				0.19047853350639343
			],
			"type":"VEC3"
		},
		{
			"bufferView":5,
			"componentType":5126,
			"count":4,
			"type":"VEC3"
		},
		{
			"bufferView":6,
			"componentType":5126,
			"count":4,
			"type":"VEC2"
		},
		{
			"bufferView":7,
			"componentType":5123,
			"count":6,
			"type":"SCALAR"
		},
		{
			"bufferView":8,
			"componentType":5126,
			"count":4,
			"max":[
				-2.2665274143218994,
				0.05491405725479126,
				-0.23114113509655
			],
			"min":[
				-5.875017166137695,
				0.05491405725479126,
				-3.4864275455474854
			],
			"type":"VEC3"
		},
		{
			"bufferView":9,
			"componentType":5126,
			"count":4,
			"type":"VEC3"
		},
		{
			"bufferView":10,
			"componentType":5126,
			"count":4,
			"type":"VEC2"
		},
		{
			"bufferView":11,
			"componentType":5123,
			"count":6,
			"type":"SCALAR"
		},
		{
			"bufferView":12,
			"componentType":5126,
			"count":4,
			"max":[
				1.7275543212890625,
				0.05491405725479126,
				-0.3078315258026123
			],
			"min":[
				-1.7275543212890625,
				0.05491405725479126,
				-3.4097368717193604
			],
			"type":"VEC3"
		},
		{
			"bufferView":13,
			"componentType":5126,
			"count":4,
			"type":"VEC3"
		},
		{
			"bufferView":14,
			"componentType":5126,
			"count":4,
			"type":"VEC2"
		},
		{
			"bufferView":15,
			"componentType":5123,
			"count":6,
			"type":"SCALAR"
		},
		{
			"bufferView":16,
			"componentType":5126,
			"count":4,
			"max":[
				5.882027626037598,
				0.05491405725479126,
				-0.2241307497024536
			],
			"min":[
				2.259517192840576,
				0.05491405725479126,
				-3.4934372901916504
			],
			"type":"VEC3"
		},
		{
			"bufferView":17,
			"componentType":5126,
			"count":4,
			"type":"VEC3"
		},
		{
			"bufferView":18,
			"componentType":5126,
			"count":4,
			"type":"VEC2"
		},
		{
			"bufferView":19,
			"componentType":5126,
			"count":4,
			"max":[
				1.8289728164672852,
				0.05491405725479126,
				3.511155605316162
			],
			"min":[
				-1.8289728164672852,
				0.05491405725479126,
				0.20641356706619263
			],
			"type":"VEC3"
		},
		{
			"bufferView":20,
			"componentType":5126,
			"count":4,
			"type":"VEC3"
		},
		{
			"bufferView":21,
			"componentType":5126,
			"count":4,
			"type":"VEC2"
		},
		{
			"bufferView":22,
			"componentType":5123,
			"count":6,
			"type":"SCALAR"
		},
		{
			"bufferView":23,
			"componentType":5126,
			"count":4,
			"max":[
				-2.2383766174316406,
				0.05491405725479126,
				3.514578342437744
			],
			"min":[
				-5.903168201446533,
				0.05491405725479126,
				0.20299029350280762
			],
			"type":"VEC3"
		},
		{
			"bufferView":24,
			"componentType":5126,
			"count":4,
			"type":"VEC3"
		},
		{
			"bufferView":25,
			"componentType":5126,
			"count":4,
			"type":"VEC2"
		}
	],
	"bufferViews":[
		{
			"buffer":0,
			"byteLength":1056,
			"byteOffset":0,
			"target":34962
		},
		{
			"buffer":0,
			"byteLength":1056,
			"byteOffset":1056,
			"target":34962
		},
		{
			"buffer":0,
			"byteLength":704,
			"byteOffset":2112,
			"target":34962
		},
		{
			"buffer":0,
			"byteLength":480,
			"byteOffset":2816,
			"target":34963
		},
		{
			"buffer":0,
			"byteLength":48,
			"byteOffset":3296,
			"target":34962
		},
		{
			"buffer":0,
			"byteLength":48,
			"byteOffset":3344,
			"target":34962
		},
		{
			"buffer":0,
			"byteLength":32,
			"byteOffset":3392,
			"target":34962
		},
		{
			"buffer":0,
			"byteLength":12,
			"byteOffset":3424,
			"target":34963
		},
		{
			"buffer":0,
			"byteLength":48,
			"byteOffset":3436,
			"target":34962
		},
		{
			"buffer":0,
			"byteLength":48,
			"byteOffset":3484,
			"target":34962
		},
		{
			"buffer":0,
			"byteLength":32,
			"byteOffset":3532,
			"target":34962
		},
		{
			"buffer":0,
			"byteLength":12,
			"byteOffset":3564,
			"target":34963
		},
		{
			"buffer":0,
			"byteLength":48,
			"byteOffset":3576,
			"target":34962
		},
		{
			"buffer":0,
			"byteLength":48,
			"byteOffset":3624,
			"target":34962
		},
		{
			"buffer":0,
			"byteLength":32,
			"byteOffset":3672,
			"target":34962
		},
		{
			"buffer":0,
			"byteLength":12,
			"byteOffset":3704,
			"target":34963
		},
		{
			"buffer":0,
			"byteLength":48,
			"byteOffset":3716,
			"target":34962
		},
		{
			"buffer":0,
			"byteLength":48,
			"byteOffset":3764,
			"target":34962
		},
		{
			"buffer":0,
			"byteLength":32,
			"byteOffset":3812,
			"target":34962
		},
		{
			"buffer":0,
			"byteLength":48,
			"byteOffset":3844,
			"target":34962
		},
		{
			"buffer":0,
			"byteLength":48,
			"byteOffset":3892,
			"target":34962
		},
		{
			"buffer":0,
			"byteLength":32,
			"byteOffset":3940,
			"target":34962
		},
		{
			"buffer":0,
			"byteLength":12,
			"byteOffset":3972,
			"target":34963
		},
		{
			"buffer":0,
			"byteLength":48,
			"byteOffset":3984,
			"target":34962
		},
		{
			"buffer":0,
			"byteLength":48,
			"byteOffset":4032,
			"target":34962
		},
		{
			"buffer":0,
			"byteLength":32,
			"byteOffset":4080,
			"target":34962
		}
	],
	"buffers":[
		{
			"byteLength":4112,
			"uri":"otra_mas.bin"
		}
	]
}
