{
	"asset":{
		"generator":"Khronos glTF Blender I/O v3.6.27",
		"version":"2.0"
	},
	"scene":0,
	"scenes":[
		{
			"name":"Scene",
			"nodes":[
				0
			]
		}
	],
	"nodes":[
		{
			"mesh":0,
			"name":"Esfera",
			"scale":[
				0.6652409434318542,
				1.4787356853485107,
				0.875163197517395
			],
			"translation":[
				0,
				1.9846458435058594,
				0
			]
		}
	],
	"materials":[
		{
			"doubleSided":true,
			"name":"Material.007",
			"pbrMetallicRoughness":{
				"baseColorFactor":[
					0.3931141793727875,
					0.02346743829548359,
					0.03297547250986099,
					1
				],
				"metallicFactor":0,
				"roughnessFactor":0.5
			}
		},
		{
			"doubleSided":true,
			"name":"Material.004",
			"pbrMetallicRoughness":{
				"baseColorFactor":[
					0.15292616188526154,
					0.015208466909825802,
					0.019382361322641373,
					1
				],
				"metallicFactor":0,
				"roughnessFactor":0.5
			}
		},
		{
			"doubleSided":true,
			"name":"Material.003",
			"pbrMetallicRoughness":{
				"baseColorFactor":[
					0.15292616188526154,
					0.015208466909825802,
					0.019382361322641373,
					1
				],
				"metallicFactor":0,
				"roughnessFactor":0.5
			}
		},
		{
			"doubleSided":true,
			"name":"Material.006",
			"pbrMetallicRoughness":{
				"baseColorFactor":[
					0.15292616188526154,
					0.015208466909825802,
					0.019382361322641373,
					1
				],
				"metallicFactor":0,
				"roughnessFactor":0.5
			}
		},
		{
			"doubleSided":true,
			"name":"Material.005",
			"pbrMetallicRoughness":{
				"baseColorFactor":[
					0.15292616188526154,
					0.015208466909825802,
					0.019382361322641373,
					1
				],
				"metallicFactor":0,
				"roughnessFactor":0.5
			}
		},
		{
			"doubleSided":true,
			"name":"Material.002",
			"pbrMetallicRoughness":{
				"baseColorFactor":[
					0,
					0,
					0,
					1
				],
				"metallicFactor":0,
				"roughnessFactor":0.5
			}
		},
		{
			"doubleSided":true,
			"name":"Material.001",
			"pbrMetallicRoughness":{
				"baseColorFactor":[
					0,
					0,
					0,
					1
				],
				"metallicFactor":0,
				"roughnessFactor":0.5
			}
		}
	],
	"meshes":[
		{
			"name":"Esfera",
			"primitives":[
				{
					"attributes":{
						"POSITION":0,
						"NORMAL":1,
						"TEXCOORD_0":2
					},
					"indices":3,
					"material":0
				},
				{
					"attributes":{
						"POSITION":4,
						"NORMAL":5,
						"TEXCOORD_0":6
					},
					"indices":7,
					"material":1
				},
				{
					"attributes":{
						"POSITION":8,
						"NORMAL":9,
						"TEXCOORD_0":10
					},
					"indices":11,
					"material":2
				},
				{
					"attributes":{
						"POSITION":12,
						"NORMAL":13,
						"TEXCOORD_0":14
					},
					"indices":11,
					"material":3
				},
				{
					"attributes":{
						"POSITION":15,
						"NORMAL":16,
						"TEXCOORD_0":17
					},
					"indices":7,
					"material":4
				},
				{
					"attributes":{
						"POSITION":18,
						"NORMAL":19,
						"TEXCOORD_0":20
					},
					"indices":21,
					"material":5
				},
				{
					"attributes":{
						"POSITION":22,
						"NORMAL":23,
						"TEXCOORD_0":24
					},
					"indices":21,
					"material":6
				}
			]
		}
	],
	"accessors":[
		{
			"bufferView":0,
			"componentType":5126,
			"count":559,
			"max":[
				0.9999997019767761,
				1,
				0.9999993443489075
			],
			"min":[
				-0.9999990463256836,
				-1,
				-1
			],
			"type":"VEC3"
		},
		{
			"bufferView":1,
			"componentType":5126,
			"count":559,
			"type":"VEC3"
		},
		{
			"bufferView":2,
			"componentType":5126,
			"count":559,
			"type":"VEC2"
		},
		{
			"bufferView":3,
			"componentType":5123,
			"count":2880,
			"type":"SCALAR"
		},
		{
			"bufferView":4,
			"componentType":5126,
			"count":128,
			"max":[
				0.43767449259757996,
				0.9164122939109802,
				0.9192866683006287
			],
			"min":[
				-0.43767449259757996,
				0.48930326104164124,
				0.22215795516967773
			],
			"type":"VEC3"
		},
		{
			"bufferView":5,
			"componentType":5126,
			"count":128,
			"type":"VEC3"
		},
		{
			"bufferView":6,
			"componentType":5126,
			"count":128,
			"type":"VEC2"
		},
		{
			"bufferView":7,
			"componentType":5123,
			"count":186,
			"type":"SCALAR"
		},
		{
			"bufferView":8,
			"componentType":5126,
			"count":128,
			"max":[
				0.43767449259757996,
				0.9164122939109802,
				-0.23845648765563965
			],
			"min":[
				-0.43767449259757996,
				0.4893032908439636,
				-0.9355851411819458
			],
			"type":"VEC3"
		},
		{
			"bufferView":9,
			"componentType":5126,
			"count":128,
			"type":"VEC3"
		},
		{
			"bufferView":10,
			"componentType":5126,
			"count":128,
			"type":"VEC2"
		},
		{
			"bufferView":11,
			"componentType":5123,
			"count":186,
			"type":"SCALAR"
		},
		{
			"bufferView":12,
			"componentType":5126,
			"count":128,
			"max":[
				0.43767449259757996,
				-0.5364397764205933,
				0.8868340849876404
			],
			"min":[
				-0.43767449259757996,
				-0.9635487794876099,
				0.18970537185668945
			],
			"type":"VEC3"
		},
		{
			"bufferView":13,
			"componentType":5126,
			"count":128,
			"type":"VEC3"
		},
		{
			"bufferView":14,
			"componentType":5126,
			"count":128,
			"type":"VEC2"
		},
		{
			"bufferView":15,
			"componentType":5126,
			"count":128,
			"max":[
				0.43767449259757996,
				-0.5364397764205933,
				-0.2063232660293579
			],
			"min":[
				-0.43767449259757996,
				-0.9635487794876099,
				-0.9034520387649536
			],
			"type":"VEC3"
		},
		{
			"bufferView":16,
			"componentType":5126,
			"count":128,
			"type":"VEC3"
		},
		{
			"bufferView":17,
			"componentType":5126,
			"count":128,
			"type":"VEC2"
		},
		{
			"bufferView":18,
			"componentType":5126,
			"count":559,
			"max":[
				1.0324798822402954,
				0.33215564489364624,
				0.39097410440444946
			],
			"min":[
				0.8458361029624939,
				0.0926399901509285,
				0.16052743792533875
			],
			"type":"VEC3"
		},
		{
			"bufferView":19,
			"componentType":5126,
			"count":559,
			"type":"VEC3"
		},
		{
			"bufferView":20,
			"componentType":5126,
			"count":559,
			"type":"VEC2"
		},
		{
			"bufferView":21,
			"componentType":5123,
			"count":2880,
			"type":"SCALAR"
		},
		{
			"bufferView":22,
			"componentType":5126,
			"count":559,
			"max":[
				1.0324798822402954,
				0.33215564489364624,
				-0.1792740374803543
			],
			"min":[
				0.8458361029624939,
				0.0926399901509285,
				-0.4097207188606262
			],
			"type":"VEC3"
		},
		{
			"bufferView":23,
			"componentType":5126,
			"count":559,
			"type":"VEC3"
		},
		{
			"bufferView":24,
			"componentType":5126,
			"count":559,
			"type":"VEC2"
		}
	],
	"bufferViews":[
		{
			"buffer":0,
			"byteLength":6708,
			"byteOffset":0,
			"target":34962
		},
		{
			"buffer":0,
			"byteLength":6708,
			"byteOffset":6708,
			"target":34962
		},
		{
			"buffer":0,
			"byteLength":4472,
			"byteOffset":13416,
			"target":34962
		},
		{
			"buffer":0,
			"byteLength":5760,
			"byteOffset":17888,
			"target":34963
		},
		{
			"buffer":0,
			"byteLength":1536,
			"byteOffset":23648,
			"target":34962
		},
		{
			"buffer":0,
			"byteLength":1536,
			"byteOffset":25184,
			"target":34962
		},
		{
			"buffer":0,
			"byteLength":1024,
			"byteOffset":26720,
			"target":34962
		},
		{
			"buffer":0,
			"byteLength":372,
			"byteOffset":27744,
			"target":34963
		},
		{
			"buffer":0,
			"byteLength":1536,
			"byteOffset":28116,
			"target":34962
		},
		{
			"buffer":0,
			"byteLength":1536,
			"byteOffset":29652,
			"target":34962
		},
		{
			"buffer":0,
			"byteLength":1024,
			"byteOffset":31188,
			"target":34962
		},
		{
			"buffer":0,
			"byteLength":372,
			"byteOffset":32212,
			"target":34963
		},
		{
			"buffer":0,
			"byteLength":1536,
			"byteOffset":32584,
			"target":34962
		},
		{
			"buffer":0,
			"byteLength":1536,
			"byteOffset":34120,
			"target":34962
		},
		{
			"buffer":0,
			"byteLength":1024,
			"byteOffset":35656,
			"target":34962
		},
		{
			"buffer":0,
			"byteLength":1536,
			"byteOffset":36680,
			"target":34962
		},
		{
			"buffer":0,
			"byteLength":1536,
			"byteOffset":38216,
			"target":34962
		},
		{
			"buffer":0,
			"byteLength":1024,
			"byteOffset":39752,
			"target":34962
		},
		{
			"buffer":0,
			"byteLength":6708,
			"byteOffset":40776,
			"target":34962
		},
		{
			"buffer":0,
			"byteLength":6708,
			"byteOffset":47484,
			"target":34962
		},
		{
			"buffer":0,
			"byteLength":4472,
			"byteOffset":54192,
			"target":34962
		},
		{
			"buffer":0,
			"byteLength":5760,
			"byteOffset":58664,
			"target":34963
		},
		{
			"buffer":0,
			"byteLength":6708,
			"byteOffset":64424,
			"target":34962
		},
		{
			"buffer":0,
			"byteLength":6708,
			"byteOffset":71132,
			"target":34962
		},
		{
			"buffer":0,
			"byteLength":4472,
			"byteOffset":77840,
			"target":34962
		}
	],
	"buffers":[
		{
			"byteLength":82312,
			"uri":"ovalito_avatar.bin"
		}
	]
}
