{
	"asset":{
		"generator":"Khronos glTF Blender I/O v3.6.27",
		"version":"2.0"
	},
	"scene":0,
	"scenes":[
		{
			"name":"Scene",
			"nodes":[
				0,
				1,
				2,
				3,
				4,
				5,
				6
			]
		}
	],
	"nodes":[
		{
			"mesh":0,
			"name":"Cube",
			"rotation":[
				0,
				-1,
				0,
				2.821299744937278e-07
			]
		},
		{
			"mesh":1,
			"name":"Cube.001",
			"rotation":[
				0,
				-1,
				0,
				2.821299744937278e-07
			]
		},
		{
			"mesh":2,
			"name":"Cube.002",
			"rotation":[
				0,
				-1,
				0,
				2.821299744937278e-07
			]
		},
		{
			"mesh":3,
			"name":"Cube.003",
			"rotation":[
				0,
				-1,
				0,
				2.821299744937278e-07
			]
		},
		{
			"mesh":4,
			"name":"Cube.004",
			"rotation":[
				0,
				-1,
				0,
				2.821299744937278e-07
			]
		},
		{
			"mesh":5,
			"name":"Cube.005",
			"rotation":[
				0,
				-1,
				0,
				2.821299744937278e-07
			]
		},
		{
			"mesh":6,
			"name":"Cube.006",
			"rotation":[
				0,
				-1,
				0,
				2.821299744937278e-07
			]
		}
	],
	"materials":[
		{
			"doubleSided":true,
			"name":"Material",
			"pbrMetallicRoughness":{
				"baseColorFactor":[
					0.800000011920929,
					0.800000011920929,
					0.800000011920929,
					1
				],
				"metallicFactor":0,
				"roughnessFactor":0.5
			}
		}
	],
	"meshes":[
		{
			"name":"Cube",
			"primitives":[
				{
					"attributes":{
						"POSITION":0,
						"NORMAL":1,
						"TEXCOORD_0":2
					},
					"indices":3,
					"material":0
				}
			]
		},
		{
			"name":"Cube.001",
			"primitives":[
				{
					"attributes":{
						"POSITION":4,
						"NORMAL":5,
						"TEXCOORD_0":6
					},
					"indices":7,
					"material":0
				}
			]
		},
		{
			"name":"Cube.002",
			"primitives":[
				{
					"attributes":{
						"POSITION":8,
						"NORMAL":9,
						"TEXCOORD_0":10
					},
					"indices":7,
					"material":0
				}
			]
		},
		{
			"name":"Cube.003",
			"primitives":[
				{
					"attributes":{
						"POSITION":11,
						"NORMAL":12,
						"TEXCOORD_0":13
					},
					"indices":14,
					"material":0
				}
			]
		},
		{
			"name":"Cube.004",
			"primitives":[
				{
					"attributes":{
						"POSITION":15,
						"NORMAL":16,
						"TEXCOORD_0":17
					},
					"indices":18,
					"material":0
				}
			]
		},
		{
			"name":"Cube.005",
			"primitives":[
				{
					"attributes":{
						"POSITION":19,
						"NORMAL":20,
						"TEXCOORD_0":21
					},
					"indices":22,
					"material":0
				}
			]
		},
		{
			"name":"Cube.006",
			"primitives":[
				{
					"attributes":{
						"POSITION":23,
						"NORMAL":24,
						"TEXCOORD_0":25
					},
					"indices":26,
					"material":0
				}
			]
		}
	],
	"accessors":[
		{
			"bufferView":0,
			"componentType":5126,
			"count":40,
			"max":[
				2.0007832050323486,
				0.05491405725479126,
				3.999821424484253
			],
			"min":[
				-2.0007832050323486,
				-0.05491405725479126,
				-3.999821424484253
			],
			"type":"VEC3"
		},
		{
			"bufferView":1,
			"componentType":5126,
			"count":40,
			"type":"VEC3"
		},
		{
			"bufferView":2,
			"componentType":5126,
			"count":40,
			"type":"VEC2"
		},
		{
			"bufferView":3,
			"componentType":5123,
			"count":96,
			"type":"SCALAR"
		},
		{
			"bufferView":4,
			"componentType":5126,
			"count":4,
			"max":[
				2.0007832050323486,
				0.05491405725479126,
				-1.3332736492156982
			],
			"min":[
				0,
				0.05491405725479126,
				-3.999821424484253
			],
			"type":"VEC3"
		},
		{
			"bufferView":5,
			"componentType":5126,
			"count":4,
			"type":"VEC3"
		},
		{
			"bufferView":6,
			"componentType":5126,
			"count":4,
			"type":"VEC2"
		},
		{
			"bufferView":7,
			"componentType":5123,
			"count":6,
			"type":"SCALAR"
		},
		{
			"bufferView":8,
			"componentType":5126,
			"count":4,
			"max":[
				2.0007832050323486,
				0.05491405725479126,
				1.3332738876342773
			],
			"min":[
				0,
				0.05491405725479126,
				-1.3332737684249878
			],
			"type":"VEC3"
		},
		{
			"bufferView":9,
			"componentType":5126,
			"count":4,
			"type":"VEC3"
		},
		{
			"bufferView":10,
			"componentType":5126,
			"count":4,
			"type":"VEC2"
		},
		{
			"bufferView":11,
			"componentType":5126,
			"count":4,
			"max":[
				2.0007832050323486,
				0.05491405725479126,
				3.999821424484253
			],
			"min":[
				0,
				0.05491405725479126,
				1.3332737684249878
			],
			"type":"VEC3"
		},
		{
			"bufferView":12,
			"componentType":5126,
			"count":4,
			"type":"VEC3"
		},
		{
			"bufferView":13,
			"componentType":5126,
			"count":4,
			"type":"VEC2"
		},
		{
			"bufferView":14,
			"componentType":5123,
			"count":6,
			"type":"SCALAR"
		},
		{
			"bufferView":15,
			"componentType":5126,
			"count":4,
			"max":[
				0,
				0.05491405725479126,
				3.999821424484253
			],
			"min":[
				-2.0007832050323486,
				0.05491405725479126,
				1.3332736492156982
			],
			"type":"VEC3"
		},
		{
			"bufferView":16,
			"componentType":5126,
			"count":4,
			"type":"VEC3"
		},
		{
			"bufferView":17,
			"componentType":5126,
			"count":4,
			"type":"VEC2"
		},
		{
			"bufferView":18,
			"componentType":5123,
			"count":6,
			"type":"SCALAR"
		},
		{
			"bufferView":19,
			"componentType":5126,
			"count":4,
			"max":[
				0,
				0.05491405725479126,
				1.3332737684249878
			],
			"min":[
				-2.0007832050323486,
				0.05491405725479126,
				-1.3332738876342773
			],
			"type":"VEC3"
		},
		{
			"bufferView":20,
			"componentType":5126,
			"count":4,
			"type":"VEC3"
		},
		{
			"bufferView":21,
			"componentType":5126,
			"count":4,
			"type":"VEC2"
		},
		{
			"bufferView":22,
			"componentType":5123,
			"count":6,
			"type":"SCALAR"
		},
		{
			"bufferView":23,
			"componentType":5126,
			"count":4,
			"max":[
				0,
				0.05491405725479126,
				-1.3332737684249878
			],
			"min":[
				-2.0007832050323486,
				0.05491405725479126,
				-3.999821424484253
			],
			"type":"VEC3"
		},
		{
			"bufferView":24,
			"componentType":5126,
			"count":4,
			"type":"VEC3"
		},
		{
			"bufferView":25,
			"componentType":5126,
			"count":4,
			"type":"VEC2"
		},
		{
			"bufferView":26,
			"componentType":5123,
			"count":6,
			"type":"SCALAR"
		}
	],
	"bufferViews":[
		{
			"buffer":0,
			"byteLength":480,
			"byteOffset":0,
			"target":34962
		},
		{
			"buffer":0,
			"byteLength":480,
			"byteOffset":480,
			"target":34962
		},
		{
			"buffer":0,
			"byteLength":320,
			"byteOffset":960,
			"target":34962
		},
		{
			"buffer":0,
			"byteLength":192,
			"byteOffset":1280,
			"target":34963
		},
		{
			"buffer":0,
			"byteLength":48,
			"byteOffset":1472,
			"target":34962
		},
		{
			"buffer":0,
			"byteLength":48,
			"byteOffset":1520,
			"target":34962
		},
		{
			"buffer":0,
			"byteLength":32,
			"byteOffset":1568,
			"target":34962
		},
		{
			"buffer":0,
			"byteLength":12,
			"byteOffset":1600,
			"target":34963
		},
		{
			"buffer":0,
			"byteLength":48,
			"byteOffset":1612,
			"target":34962
		},
		{
			"buffer":0,
			"byteLength":48,
			"byteOffset":1660,
			"target":34962
		},
		{
			"buffer":0,
			"byteLength":32,
			"byteOffset":1708,
			"target":34962
		},
		{
			"buffer":0,
			"byteLength":48,
			"byteOffset":1740,
			"target":34962
		},
		{
			"buffer":0,
			"byteLength":48,
			"byteOffset":1788,
			"target":34962
		},
		{
			"buffer":0,
			"byteLength":32,
			"byteOffset":1836,
			"target":34962
		},
		{
			"buffer":0,
			"byteLength":12,
			"byteOffset":1868,
			"target":34963
		},
		{
			"buffer":0,
			"byteLength":48,
			"byteOffset":1880,
			"target":34962
		},
		{
			"buffer":0,
			"byteLength":48,
			"byteOffset":1928,
			"target":34962
		},
		{
			"buffer":0,
			"byteLength":32,
			"byteOffset":1976,
			"target":34962
		},
		{
			"buffer":0,
			"byteLength":12,
			"byteOffset":2008,
			"target":34963
		},
		{
			"buffer":0,
			"byteLength":48,
			"byteOffset":2020,
			"target":34962
		},
		{
			"buffer":0,
			"byteLength":48,
			"byteOffset":2068,
			"target":34962
		},
		{
			"buffer":0,
			"byteLength":32,
			"byteOffset":2116,
			"target":34962
		},
		{
			"buffer":0,
			"byteLength":12,
			"byteOffset":2148,
			"target":34963
		},
		{
			"buffer":0,
			"byteLength":48,
			"byteOffset":2160,
			"target":34962
		},
		{
			"buffer":0,
			"byteLength":48,
			"byteOffset":2208,
			"target":34962
		},
		{
			"buffer":0,
			"byteLength":32,
			"byteOffset":2256,
			"target":34962
		},
		{
			"buffer":0,
			"byteLength":12,
			"byteOffset":2288,
			"target":34963
		}
	],
	"buffers":[
		{
			"byteLength":2300,
			"uri":"plano_prueba_seis.bin"
		}
	]
}
