{
	"asset":{
		"generator":"Khronos glTF Blender I/O v3.6.27",
		"version":"2.0"
	},
	"scene":0,
	"scenes":[
		{
			"name":"Scene",
			"nodes":[
				0,
				1,
				2,
				3,
				4,
				5,
				6
			]
		}
	],
	"nodes":[
		{
			"mesh":0,
			"name":"Cube",
			"rotation":[
				0,
				0.7071068286895752,
				0,
				0.7071068286895752
			],
			"translation":[
				-0.01928955316543579,
				0,
				-0.014013409614562988
			]
		},
		{
			"mesh":1,
			"name":"Cube.001",
			"rotation":[
				0,
				0.7071068286895752,
				0,
				0.7071068286895752
			],
			"translation":[
				-0.01928955316543579,
				0,
				-0.014013409614562988
			]
		},
		{
			"mesh":2,
			"name":"Cube.002",
			"rotation":[
				0,
				0.7071068286895752,
				0,
				0.7071068286895752
			],
			"translation":[
				-0.01928955316543579,
				0,
				-0.014013409614562988
			]
		},
		{
			"mesh":3,
			"name":"Cube.003",
			"rotation":[
				0,
				0.7071068286895752,
				0,
				0.7071068286895752
			],
			"translation":[
				-0.01928955316543579,
				0,
				-0.014013409614562988
			]
		},
		{
			"mesh":4,
			"name":"Cube.006",
			"rotation":[
				0,
				0.7071068286895752,
				0,
				0.7071068286895752
			],
			"translation":[
				-0.01928955316543579,
				0,
				-0.014013409614562988
			]
		},
		{
			"mesh":5,
			"name":"Cube.005",
			"rotation":[
				0,
				0.7071068286895752,
				0,
				0.7071068286895752
			],
			"translation":[
				-0.01928955316543579,
				0,
				-0.014013409614562988
			]
		},
		{
			"mesh":6,
			"name":"Cube.004",
			"rotation":[
				0,
				0.7071068286895752,
				0,
				0.7071068286895752
			],
			"translation":[
				-0.01928955316543579,
				0,
				-0.014013409614562988
			]
		}
	],
	"materials":[
		{
			"doubleSided":true,
			"name":"Material",
			"pbrMetallicRoughness":{
				"baseColorFactor":[
					0.1384313404560089,
					0.381325900554657,
					0.045186322182416916,
					1
				],
				"metallicFactor":0,
				"roughnessFactor":0.5
			}
		},
		{
			"doubleSided":true,
			"name":"Material.002",
			"pbrMetallicRoughness":{
				"baseColorFactor":[
					0.1384313404560089,
					0.381325900554657,
					0.045186322182416916,
					1
				],
				"metallicFactor":0,
				"roughnessFactor":0.5
			}
		},
		{
			"doubleSided":true,
			"name":"Material.004",
			"pbrMetallicRoughness":{
				"baseColorFactor":[
					0.1384313404560089,
					0.381325900554657,
					0.045186322182416916,
					1
				],
				"metallicFactor":0,
				"roughnessFactor":0.5
			}
		},
		{
			"doubleSided":true,
			"name":"Material.005",
			"pbrMetallicRoughness":{
				"baseColorFactor":[
					0.1384313404560089,
					0.381325900554657,
					0.045186322182416916,
					1
				],
				"metallicFactor":0,
				"roughnessFactor":0.5
			}
		},
		{
			"doubleSided":true,
			"name":"Material.006",
			"pbrMetallicRoughness":{
				"baseColorFactor":[
					0.1384313404560089,
					0.381325900554657,
					0.045186322182416916,
					1
				],
				"metallicFactor":0,
				"roughnessFactor":0.5
			}
		},
		{
			"doubleSided":true,
			"name":"Material.003",
			"pbrMetallicRoughness":{
				"baseColorFactor":[
					0.1384313404560089,
					0.381325900554657,
					0.045186322182416916,
					1
				],
				"metallicFactor":0,
				"roughnessFactor":0.5
			}
		},
		{
			"doubleSided":true,
			"name":"Material.001",
			"pbrMetallicRoughness":{
				"baseColorFactor":[
					0.1384313404560089,
					0.381325900554657,
					0.045186322182416916,
					1
				],
				"metallicFactor":0,
				"roughnessFactor":0.5
			}
		}
	],
	"meshes":[
		{
			"name":"Cube",
			"primitives":[
				{
					"attributes":{
						"POSITION":0,
						"NORMAL":1,
						"TEXCOORD_0":2
					},
					"indices":3,
					"material":0
				},
				{
					"attributes":{
						"POSITION":4,
						"NORMAL":5,
						"TEXCOORD_0":6
					},
					"indices":7,
					"material":1
				},
				{
					"attributes":{
						"POSITION":8,
						"NORMAL":9,
						"TEXCOORD_0":10
					},
					"indices":11,
					"material":2
				},
				{
					"attributes":{
						"POSITION":12,
						"NORMAL":13,
						"TEXCOORD_0":14
					},
					"indices":15,
					"material":3
				},
				{
					"attributes":{
						"POSITION":16,
						"NORMAL":17,
						"TEXCOORD_0":18
					},
					"indices":19,
					"material":4
				},
				{
					"attributes":{
						"POSITION":20,
						"NORMAL":21,
						"TEXCOORD_0":22
					},
					"indices":23,
					"material":5
				},
				{
					"attributes":{
						"POSITION":24,
						"NORMAL":25,
						"TEXCOORD_0":26
					},
					"indices":27,
					"material":6
				}
			]
		},
		{
			"name":"Cube.007",
			"primitives":[
				{
					"attributes":{
						"POSITION":28,
						"NORMAL":29,
						"TEXCOORD_0":30
					},
					"indices":31,
					"material":1
				}
			]
		},
		{
			"name":"Cube.008",
			"primitives":[
				{
					"attributes":{
						"POSITION":32,
						"NORMAL":33,
						"TEXCOORD_0":34
					},
					"indices":35,
					"material":2
				}
			]
		},
		{
			"name":"Cube.009",
			"primitives":[
				{
					"attributes":{
						"POSITION":36,
						"NORMAL":37,
						"TEXCOORD_0":38
					},
					"indices":35,
					"material":3
				}
			]
		},
		{
			"name":"Cube.010",
			"primitives":[
				{
					"attributes":{
						"POSITION":39,
						"NORMAL":40,
						"TEXCOORD_0":41
					},
					"indices":42,
					"material":6
				}
			]
		},
		{
			"name":"Cube.011",
			"primitives":[
				{
					"attributes":{
						"POSITION":43,
						"NORMAL":44,
						"TEXCOORD_0":45
					},
					"indices":42,
					"material":5
				}
			]
		},
		{
			"name":"Cube.012",
			"primitives":[
				{
					"attributes":{
						"POSITION":46,
						"NORMAL":47,
						"TEXCOORD_0":48
					},
					"indices":49,
					"material":4
				}
			]
		}
	],
	"accessors":[
		{
			"bufferView":0,
			"componentType":5126,
			"count":312,
			"max":[
				6.214681148529053,
				0.16638177633285522,
				3.8260915279388428
			],
			"min":[
				-6.214681148529053,
				-0.05491405725479126,
				-3.8260915279388428
			],
			"type":"VEC3"
		},
		{
			"bufferView":1,
			"componentType":5126,
			"count":312,
			"type":"VEC3"
		},
		{
			"bufferView":2,
			"componentType":5126,
			"count":312,
			"type":"VEC2"
		},
		{
			"bufferView":3,
			"componentType":5123,
			"count":720,
			"type":"SCALAR"
		},
		{
			"bufferView":4,
			"componentType":5126,
			"count":93,
			"max":[
				-2.035386085510254,
				0.1663815975189209,
				2.384185791015625e-07
			],
			"min":[
				-6.10615873336792,
				0.05491405725479126,
				-3.717568874359131
			],
			"type":"VEC3"
		},
		{
			"bufferView":5,
			"componentType":5126,
			"count":93,
			"type":"VEC3"
		},
		{
			"bufferView":6,
			"componentType":5126,
			"count":93,
			"type":"VEC2"
		},
		{
			"bufferView":7,
			"componentType":5123,
			"count":168,
			"type":"SCALAR"
		},
		{
			"bufferView":8,
			"componentType":5126,
			"count":92,
			"max":[
				2.035386085510254,
				0.1663815975189209,
				2.384185791015625e-07
			],
			"min":[
				-2.035386085510254,
				0.05491405725479126,
				-3.7175686359405518
			],
			"type":"VEC3"
		},
		{
			"bufferView":9,
			"componentType":5126,
			"count":92,
			"type":"VEC3"
		},
		{
			"bufferView":10,
			"componentType":5126,
			"count":92,
			"type":"VEC2"
		},
		{
			"bufferView":11,
			"componentType":5123,
			"count":168,
			"type":"SCALAR"
		},
		{
			"bufferView":12,
			"componentType":5126,
			"count":94,
			"max":[
				6.10615873336792,
				0.1663815975189209,
				4.76837158203125e-07
			],
			"min":[
				2.035386085510254,
				0.05491405725479126,
				-3.7175683975219727
			],
			"type":"VEC3"
		},
		{
			"bufferView":13,
			"componentType":5126,
			"count":94,
			"type":"VEC3"
		},
		{
			"bufferView":14,
			"componentType":5126,
			"count":94,
			"type":"VEC2"
		},
		{
			"bufferView":15,
			"componentType":5123,
			"count":168,
			"type":"SCALAR"
		},
		{
			"bufferView":16,
			"componentType":5126,
			"count":93,
			"max":[
				6.10615873336792,
				0.1663815975189209,
				3.71756911277771
			],
			"min":[
				2.035386085510254,
				0.05491405725479126,
				2.384185791015625e-07
			],
			"type":"VEC3"
		},
		{
			"bufferView":17,
			"componentType":5126,
			"count":93,
			"type":"VEC3"
		},
		{
			"bufferView":18,
			"componentType":5126,
			"count":93,
			"type":"VEC2"
		},
		{
			"bufferView":19,
			"componentType":5123,
			"count":168,
			"type":"SCALAR"
		},
		{
			"bufferView":20,
			"componentType":5126,
			"count":93,
			"max":[
				2.035386085510254,
				0.1663815975189209,
				3.717568874359131
			],
			"min":[
				-2.035386085510254,
				0.05491405725479126,
				2.384185791015625e-07
			],
			"type":"VEC3"
		},
		{
			"bufferView":21,
			"componentType":5126,
			"count":93,
			"type":"VEC3"
		},
		{
			"bufferView":22,
			"componentType":5126,
			"count":93,
			"type":"VEC2"
		},
		{
			"bufferView":23,
			"componentType":5123,
			"count":168,
			"type":"SCALAR"
		},
		{
			"bufferView":24,
			"componentType":5126,
			"count":94,
			"max":[
				-2.035386085510254,
				0.1663815975189209,
				3.717568874359131
			],
			"min":[
				-6.10615873336792,
				0.05491405725479126,
				-2.384185791015625e-07
			],
			"type":"VEC3"
		},
		{
			"bufferView":25,
			"componentType":5126,
			"count":94,
			"type":"VEC3"
		},
		{
			"bufferView":26,
			"componentType":5126,
			"count":94,
			"type":"VEC2"
		},
		{
			"bufferView":27,
			"componentType":5123,
			"count":168,
			"type":"SCALAR"
		},
		{
			"bufferView":28,
			"componentType":5126,
			"count":12,
			"max":[
				-2.1279048919677734,
				0.05491405725479126,
				-0.09251851588487625
			],
			"min":[
				-6.0136399269104,
				0.05491405725479126,
				-3.6250500679016113
			],
			"type":"VEC3"
		},
		{
			"bufferView":29,
			"componentType":5126,
			"count":12,
			"type":"VEC3"
		},
		{
			"bufferView":30,
			"componentType":5126,
			"count":12,
			"type":"VEC2"
		},
		{
			"bufferView":31,
			"componentType":5123,
			"count":30,
			"type":"SCALAR"
		},
		{
			"bufferView":32,
			"componentType":5126,
			"count":12,
			"max":[
				1.9260057210922241,
				0.05491405725479126,
				-0.10938017815351486
			],
			"min":[
				-1.9260057210922241,
				0.05491405725479126,
				-3.6081881523132324
			],
			"type":"VEC3"
		},
		{
			"bufferView":33,
			"componentType":5126,
			"count":12,
			"type":"VEC3"
		},
		{
			"bufferView":34,
			"componentType":5126,
			"count":12,
			"type":"VEC2"
		},
		{
			"bufferView":35,
			"componentType":5123,
			"count":30,
			"type":"SCALAR"
		},
		{
			"bufferView":36,
			"componentType":5126,
			"count":12,
			"max":[
				6.004812717437744,
				0.05491405725479126,
				-0.1013454720377922
			],
			"min":[
				2.1367321014404297,
				0.05491405725479126,
				-3.616222381591797
			],
			"type":"VEC3"
		},
		{
			"bufferView":37,
			"componentType":5126,
			"count":12,
			"type":"VEC3"
		},
		{
			"bufferView":38,
			"componentType":5126,
			"count":12,
			"type":"VEC2"
		},
		{
			"bufferView":39,
			"componentType":5126,
			"count":12,
			"max":[
				-2.1366190910339355,
				0.05491405725479126,
				3.616335868835449
			],
			"min":[
				-6.004925727844238,
				0.05491405725479126,
				0.10123279690742493
			],
			"type":"VEC3"
		},
		{
			"bufferView":40,
			"componentType":5126,
			"count":12,
			"type":"VEC3"
		},
		{
			"bufferView":41,
			"componentType":5126,
			"count":12,
			"type":"VEC2"
		},
		{
			"bufferView":42,
			"componentType":5123,
			"count":30,
			"type":"SCALAR"
		},
		{
			"bufferView":43,
			"componentType":5126,
			"count":12,
			"max":[
				1.9388539791107178,
				0.05491405725479126,
				3.6210367679595947
			],
			"min":[
				-1.9388539791107178,
				0.05491405725479126,
				0.09653233736753464
			],
			"type":"VEC3"
		},
		{
			"bufferView":44,
			"componentType":5126,
			"count":12,
			"type":"VEC3"
		},
		{
			"bufferView":45,
			"componentType":5126,
			"count":12,
			"type":"VEC2"
		},
		{
			"bufferView":46,
			"componentType":5126,
			"count":12,
			"max":[
				6.00714635848999,
				0.05491405725479126,
				3.6185567378997803
			],
			"min":[
				2.1343984603881836,
				0.05491405725479126,
				0.09901253134012222
			],
			"type":"VEC3"
		},
		{
			"bufferView":47,
			"componentType":5126,
			"count":12,
			"type":"VEC3"
		},
		{
			"bufferView":48,
			"componentType":5126,
			"count":12,
			"type":"VEC2"
		},
		{
			"bufferView":49,
			"componentType":5123,
			"count":30,
			"type":"SCALAR"
		}
	],
	"bufferViews":[
		{
			"buffer":0,
			"byteLength":3744,
			"byteOffset":0,
			"target":34962
		},
		{
			"buffer":0,
			"byteLength":3744,
			"byteOffset":3744,
			"target":34962
		},
		{
			"buffer":0,
			"byteLength":2496,
			"byteOffset":7488,
			"target":34962
		},
		{
			"buffer":0,
			"byteLength":1440,
			"byteOffset":9984,
			"target":34963
		},
		{
			"buffer":0,
			"byteLength":1116,
			"byteOffset":11424,
			"target":34962
		},
		{
			"buffer":0,
			"byteLength":1116,
			"byteOffset":12540,
			"target":34962
		},
		{
			"buffer":0,
			"byteLength":744,
			"byteOffset":13656,
			"target":34962
		},
		{
			"buffer":0,
			"byteLength":336,
			"byteOffset":14400,
			"target":34963
		},
		{
			"buffer":0,
			"byteLength":1104,
			"byteOffset":14736,
			"target":34962
		},
		{
			"buffer":0,
			"byteLength":1104,
			"byteOffset":15840,
			"target":34962
		},
		{
			"buffer":0,
			"byteLength":736,
			"byteOffset":16944,
			"target":34962
		},
		{
			"buffer":0,
			"byteLength":336,
			"byteOffset":17680,
			"target":34963
		},
		{
			"buffer":0,
			"byteLength":1128,
			"byteOffset":18016,
			"target":34962
		},
		{
			"buffer":0,
			"byteLength":1128,
			"byteOffset":19144,
			"target":34962
		},
		{
			"buffer":0,
			"byteLength":752,
			"byteOffset":20272,
			"target":34962
		},
		{
			"buffer":0,
			"byteLength":336,
			"byteOffset":21024,
			"target":34963
		},
		{
			"buffer":0,
			"byteLength":1116,
			"byteOffset":21360,
			"target":34962
		},
		{
			"buffer":0,
			"byteLength":1116,
			"byteOffset":22476,
			"target":34962
		},
		{
			"buffer":0,
			"byteLength":744,
			"byteOffset":23592,
			"target":34962
		},
		{
			"buffer":0,
			"byteLength":336,
			"byteOffset":24336,
			"target":34963
		},
		{
			"buffer":0,
			"byteLength":1116,
			"byteOffset":24672,
			"target":34962
		},
		{
			"buffer":0,
			"byteLength":1116,
			"byteOffset":25788,
			"target":34962
		},
		{
			"buffer":0,
			"byteLength":744,
			"byteOffset":26904,
			"target":34962
		},
		{
			"buffer":0,
			"byteLength":336,
			"byteOffset":27648,
			"target":34963
		},
		{
			"buffer":0,
			"byteLength":1128,
			"byteOffset":27984,
			"target":34962
		},
		{
			"buffer":0,
			"byteLength":1128,
			"byteOffset":29112,
			"target":34962
		},
		{
			"buffer":0,
			"byteLength":752,
			"byteOffset":30240,
			"target":34962
		},
		{
			"buffer":0,
			"byteLength":336,
			"byteOffset":30992,
			"target":34963
		},
		{
			"buffer":0,
			"byteLength":144,
			"byteOffset":31328,
			"target":34962
		},
		{
			"buffer":0,
			"byteLength":144,
			"byteOffset":31472,
			"target":34962
		},
		{
			"buffer":0,
			"byteLength":96,
			"byteOffset":31616,
			"target":34962
		},
		{
			"buffer":0,
			"byteLength":60,
			"byteOffset":31712,
			"target":34963
		},
		{
			"buffer":0,
			"byteLength":144,
			"byteOffset":31772,
			"target":34962
		},
		{
			"buffer":0,
			"byteLength":144,
			"byteOffset":31916,
			"target":34962
		},
		{
			"buffer":0,
			"byteLength":96,
			"byteOffset":32060,
			"target":34962
		},
		{
			"buffer":0,
			"byteLength":60,
			"byteOffset":32156,
			"target":34963
		},
		{
			"buffer":0,
			"byteLength":144,
			"byteOffset":32216,
			"target":34962
		},
		{
			"buffer":0,
			"byteLength":144,
			"byteOffset":32360,
			"target":34962
		},
		{
			"buffer":0,
			"byteLength":96,
			"byteOffset":32504,
			"target":34962
		},
		{
			"buffer":0,
			"byteLength":144,
			"byteOffset":32600,
			"target":34962
		},
		{
			"buffer":0,
			"byteLength":144,
			"byteOffset":32744,
			"target":34962
		},
		{
			"buffer":0,
			"byteLength":96,
			"byteOffset":32888,
			"target":34962
		},
		{
			"buffer":0,
			"byteLength":60,
			"byteOffset":32984,
			"target":34963
		},
		{
			"buffer":0,
			"byteLength":144,
			"byteOffset":33044,
			"target":34962
		},
		{
			"buffer":0,
			"byteLength":144,
			"byteOffset":33188,
			"target":34962
		},
		{
			"buffer":0,
			"byteLength":96,
			"byteOffset":33332,
			"target":34962
		},
		{
			"buffer":0,
			"byteLength":144,
			"byteOffset":33428,
			"target":34962
		},
		{
			"buffer":0,
			"byteLength":144,
			"byteOffset":33572,
			"target":34962
		},
		{
			"buffer":0,
			"byteLength":96,
			"byteOffset":33716,
			"target":34962
		},
		{
			"buffer":0,
			"byteLength":60,
			"byteOffset":33812,
			"target":34963
		}
	],
	"buffers":[
		{
			"byteLength":33872,
			"uri":"plano_final_otra_prueba.bin"
		}
	]
}
