{
	"asset":{
		"generator":"Khronos glTF Blender I/O v3.6.27",
		"version":"2.0"
	},
	"scene":0,
	"scenes":[
		{
			"name":"Scene",
			"nodes":[
				0,
				1,
				2,
				3,
				4,
				5,
				6
			]
		}
	],
	"nodes":[
		{
			"mesh":0,
			"name":"Cube",
			"rotation":[
				0,
				0.7071068286895752,
				0,
				0.7071068286895752
			],
			"translation":[
				-0.01928955316543579,
				0,
				-0.014013409614562988
			]
		},
		{
			"mesh":1,
			"name":"Cube.001",
			"rotation":[
				0,
				0.7071068286895752,
				0,
				0.7071068286895752
			],
			"translation":[
				-0.01928955316543579,
				0,
				-0.014013409614562988
			]
		},
		{
			"mesh":2,
			"name":"Cube.002",
			"rotation":[
				0,
				0.7071068286895752,
				0,
				0.7071068286895752
			],
			"translation":[
				-0.01928955316543579,
				0,
				-0.014013409614562988
			]
		},
		{
			"mesh":3,
			"name":"Cube.003",
			"rotation":[
				0,
				0.7071068286895752,
				0,
				0.7071068286895752
			],
			"translation":[
				-0.01928955316543579,
				0,
				-0.014013409614562988
			]
		},
		{
			"mesh":4,
			"name":"Cube.004",
			"rotation":[
				0,
				0.7071068286895752,
				0,
				0.7071068286895752
			],
			"translation":[
				-0.01928955316543579,
				0,
				-0.014013409614562988
			]
		},
		{
			"mesh":5,
			"name":"Cube.005",
			"rotation":[
				0,
				0.7071068286895752,
				0,
				0.7071068286895752
			],
			"translation":[
				-0.01928955316543579,
				0,
				-0.014013409614562988
			]
		},
		{
			"mesh":6,
			"name":"Cube.006",
			"rotation":[
				0,
				0.7071068286895752,
				0,
				0.7071068286895752
			],
			"translation":[
				-0.01928955316543579,
				0,
				-0.014013409614562988
			]
		}
	],
	"materials":[
		{
			"doubleSided":true,
			"name":"Material",
			"pbrMetallicRoughness":{
				"baseColorFactor":[
					0.800000011920929,
					0.800000011920929,
					0.800000011920929,
					1
				],
				"metallicFactor":0,
				"roughnessFactor":0.5
			}
		}
	],
	"meshes":[
		{
			"name":"Cube",
			"primitives":[
				{
					"attributes":{
						"POSITION":0,
						"NORMAL":1,
						"TEXCOORD_0":2
					},
					"indices":3,
					"material":0
				}
			]
		},
		{
			"name":"Cube.001",
			"primitives":[
				{
					"attributes":{
						"POSITION":4,
						"NORMAL":5,
						"TEXCOORD_0":6
					},
					"indices":7,
					"material":0
				}
			]
		},
		{
			"name":"Cube.002",
			"primitives":[
				{
					"attributes":{
						"POSITION":8,
						"NORMAL":9,
						"TEXCOORD_0":10
					},
					"indices":11,
					"material":0
				}
			]
		},
		{
			"name":"Cube.003",
			"primitives":[
				{
					"attributes":{
						"POSITION":12,
						"NORMAL":13,
						"TEXCOORD_0":14
					},
					"indices":15,
					"material":0
				}
			]
		},
		{
			"name":"Cube.004",
			"primitives":[
				{
					"attributes":{
						"POSITION":16,
						"NORMAL":17,
						"TEXCOORD_0":18
					},
					"indices":19,
					"material":0
				}
			]
		},
		{
			"name":"Cube.005",
			"primitives":[
				{
					"attributes":{
						"POSITION":20,
						"NORMAL":21,
						"TEXCOORD_0":22
					},
					"indices":19,
					"material":0
				}
			]
		},
		{
			"name":"Cube.006",
			"primitives":[
				{
					"attributes":{
						"POSITION":23,
						"NORMAL":24,
						"TEXCOORD_0":25
					},
					"indices":26,
					"material":0
				}
			]
		}
	],
	"accessors":[
		{
			"bufferView":0,
			"componentType":5126,
			"count":40,
			"max":[
				6.10615873336792,
				0.05491405725479126,
				3.71756911277771
			],
			"min":[
				-6.10615873336792,
				-0.05491405725479126,
				-3.717568874359131
			],
			"type":"VEC3"
		},
		{
			"bufferView":1,
			"componentType":5126,
			"count":40,
			"type":"VEC3"
		},
		{
			"bufferView":2,
			"componentType":5126,
			"count":40,
			"type":"VEC2"
		},
		{
			"bufferView":3,
			"componentType":5123,
			"count":96,
			"type":"SCALAR"
		},
		{
			"bufferView":4,
			"componentType":5126,
			"count":4,
			"max":[
				-2.035386085510254,
				0.05491405725479126,
				2.384185791015625e-07
			],
			"min":[
				-6.10615873336792,
				0.05491405725479126,
				-3.717568874359131
			],
			"type":"VEC3"
		},
		{
			"bufferView":5,
			"componentType":5126,
			"count":4,
			"type":"VEC3"
		},
		{
			"bufferView":6,
			"componentType":5126,
			"count":4,
			"type":"VEC2"
		},
		{
			"bufferView":7,
			"componentType":5123,
			"count":6,
			"type":"SCALAR"
		},
		{
			"bufferView":8,
			"componentType":5126,
			"count":4,
			"max":[
				2.035386085510254,
				0.05491405725479126,
				2.384185791015625e-07
			],
			"min":[
				-2.035386085510254,
				0.05491405725479126,
				-3.7175686359405518
			],
			"type":"VEC3"
		},
		{
			"bufferView":9,
			"componentType":5126,
			"count":4,
			"type":"VEC3"
		},
		{
			"bufferView":10,
			"componentType":5126,
			"count":4,
			"type":"VEC2"
		},
		{
			"bufferView":11,
			"componentType":5123,
			"count":6,
			"type":"SCALAR"
		},
		{
			"bufferView":12,
			"componentType":5126,
			"count":4,
			"max":[
				6.10615873336792,
				0.05491405725479126,
				4.76837158203125e-07
			],
			"min":[
				2.035386085510254,
				0.05491405725479126,
				-3.7175683975219727
			],
			"type":"VEC3"
		},
		{
			"bufferView":13,
			"componentType":5126,
			"count":4,
			"type":"VEC3"
		},
		{
			"bufferView":14,
			"componentType":5126,
			"count":4,
			"type":"VEC2"
		},
		{
			"bufferView":15,
			"componentType":5123,
			"count":6,
			"type":"SCALAR"
		},
		{
			"bufferView":16,
			"componentType":5126,
			"count":4,
			"max":[
				6.10615873336792,
				0.05491405725479126,
				3.71756911277771
			],
			"min":[
				2.035386085510254,
				0.05491405725479126,
				2.384185791015625e-07
			],
			"type":"VEC3"
		},
		{
			"bufferView":17,
			"componentType":5126,
			"count":4,
			"type":"VEC3"
		},
		{
			"bufferView":18,
			"componentType":5126,
			"count":4,
			"type":"VEC2"
		},
		{
			"bufferView":19,
			"componentType":5123,
			"count":6,
			"type":"SCALAR"
		},
		{
			"bufferView":20,
			"componentType":5126,
			"count":4,
			"max":[
				2.035386085510254,
				0.05491405725479126,
				3.717568874359131
			],
			"min":[
				-2.035386085510254,
				0.05491405725479126,
				2.384185791015625e-07
			],
			"type":"VEC3"
		},
		{
			"bufferView":21,
			"componentType":5126,
			"count":4,
			"type":"VEC3"
		},
		{
			"bufferView":22,
			"componentType":5126,
			"count":4,
			"type":"VEC2"
		},
		{
			"bufferView":23,
			"componentType":5126,
			"count":4,
			"max":[
				-2.035386085510254,
				0.05491405725479126,
				3.717568874359131
			],
			"min":[
				-6.10615873336792,
				0.05491405725479126,
				-2.384185791015625e-07
			],
			"type":"VEC3"
		},
		{
			"bufferView":24,
			"componentType":5126,
			"count":4,
			"type":"VEC3"
		},
		{
			"bufferView":25,
			"componentType":5126,
			"count":4,
			"type":"VEC2"
		},
		{
			"bufferView":26,
			"componentType":5123,
			"count":6,
			"type":"SCALAR"
		}
	],
	"bufferViews":[
		{
			"buffer":0,
			"byteLength":480,
			"byteOffset":0,
			"target":34962
		},
		{
			"buffer":0,
			"byteLength":480,
			"byteOffset":480,
			"target":34962
		},
		{
			"buffer":0,
			"byteLength":320,
			"byteOffset":960,
			"target":34962
		},
		{
			"buffer":0,
			"byteLength":192,
			"byteOffset":1280,
			"target":34963
		},
		{
			"buffer":0,
			"byteLength":48,
			"byteOffset":1472,
			"target":34962
		},
		{
			"buffer":0,
			"byteLength":48,
			"byteOffset":1520,
			"target":34962
		},
		{
			"buffer":0,
			"byteLength":32,
			"byteOffset":1568,
			"target":34962
		},
		{
			"buffer":0,
			"byteLength":12,
			"byteOffset":1600,
			"target":34963
		},
		{
			"buffer":0,
			"byteLength":48,
			"byteOffset":1612,
			"target":34962
		},
		{
			"buffer":0,
			"byteLength":48,
			"byteOffset":1660,
			"target":34962
		},
		{
			"buffer":0,
			"byteLength":32,
			"byteOffset":1708,
			"target":34962
		},
		{
			"buffer":0,
			"byteLength":12,
			"byteOffset":1740,
			"target":34963
		},
		{
			"buffer":0,
			"byteLength":48,
			"byteOffset":1752,
			"target":34962
		},
		{
			"buffer":0,
			"byteLength":48,
			"byteOffset":1800,
			"target":34962
		},
		{
			"buffer":0,
			"byteLength":32,
			"byteOffset":1848,
			"target":34962
		},
		{
			"buffer":0,
			"byteLength":12,
			"byteOffset":1880,
			"target":34963
		},
		{
			"buffer":0,
			"byteLength":48,
			"byteOffset":1892,
			"target":34962
		},
		{
			"buffer":0,
			"byteLength":48,
			"byteOffset":1940,
			"target":34962
		},
		{
			"buffer":0,
			"byteLength":32,
			"byteOffset":1988,
			"target":34962
		},
		{
			"buffer":0,
			"byteLength":12,
			"byteOffset":2020,
			"target":34963
		},
		{
			"buffer":0,
			"byteLength":48,
			"byteOffset":2032,
			"target":34962
		},
		{
			"buffer":0,
			"byteLength":48,
			"byteOffset":2080,
			"target":34962
		},
		{
			"buffer":0,
			"byteLength":32,
			"byteOffset":2128,
			"target":34962
		},
		{
			"buffer":0,
			"byteLength":48,
			"byteOffset":2160,
			"target":34962
		},
		{
			"buffer":0,
			"byteLength":48,
			"byteOffset":2208,
			"target":34962
		},
		{
			"buffer":0,
			"byteLength":32,
			"byteOffset":2256,
			"target":34962
		},
		{
			"buffer":0,
			"byteLength":12,
			"byteOffset":2288,
			"target":34963
		}
	],
	"buffers":[
		{
			"byteLength":2300,
			"uri":"plano_final.bin"
		}
	]
}
