{
	"asset":{
		"generator":"Khronos glTF Blender I/O v3.6.27",
		"version":"2.0"
	},
	"scene":0,
	"scenes":[
		{
			"name":"Scene",
			"nodes":[
				0,
				1,
				2,
				3,
				4,
				5
			]
		}
	],
	"nodes":[
		{
			"mesh":0,
			"name":"Rosca",
			"rotation":[
				0,
				0,
				-0.7071068286895752,
				0.7071068286895752
			],
			"translation":[
				0,
				2.9379286766052246,
				0
			]
		},
		{
			"mesh":1,
			"name":"Esfera",
			"scale":[
				0.6567614674568176,
				0.6567614674568176,
				0.6567614674568176
			],
			"translation":[
				0,
				2.9400296211242676,
				0
			]
		},
		{
			"mesh":2,
			"name":"Esfera.001",
			"rotation":[
				0,
				0,
				-0.998532235622406,
				0.05416080355644226
			],
			"scale":[
				-0.05548620596528053,
				-0.12990830838680267,
				-0.0724056139588356
			],
			"translation":[
				0.6286678910255432,
				3.069415807723999,
				0.1780041605234146
			]
		},
		{
			"mesh":3,
			"name":"Esfera.002",
			"rotation":[
				0,
				0,
				-0.998532235622406,
				0.05416080355644226
			],
			"scale":[
				-0.05548620596528053,
				-0.12990830838680267,
				-0.0724056139588356
			],
			"translation":[
				0.6286678910255432,
				3.069415807723999,
				-0.16244623064994812
			]
		},
		{
			"mesh":4,
			"name":"Esfera.003",
			"scale":[
				0.1775858998298645,
				0.1775858998298645,
				0.1775858998298645
			],
			"translation":[
				0,
				1.42313551902771,
				0
			]
		},
		{
			"mesh":5,
			"name":"Esfera.004",
			"scale":[
				0.1775858998298645,
				0.1775858998298645,
				0.1775858998298645
			],
			"translation":[
				0,
				4.461797714233398,
				0
			]
		}
	],
	"materials":[
		{
			"doubleSided":true,
			"name":"Material.004",
			"pbrMetallicRoughness":{
				"baseColorFactor":[
					0.6203240752220154,
					0.4666973054409027,
					0.8000000715255737,
					1
				],
				"metallicFactor":0,
				"roughnessFactor":0.5
			}
		},
		{
			"doubleSided":true,
			"name":"Material.003",
			"pbrMetallicRoughness":{
				"baseColorFactor":[
					0.8000000715255737,
					0.31093505024909973,
					0.0819602832198143,
					1
				],
				"metallicFactor":0,
				"roughnessFactor":0.5
			}
		},
		{
			"doubleSided":true,
			"name":"Material.002",
			"pbrMetallicRoughness":{
				"baseColorFactor":[
					0,
					0,
					0,
					1
				],
				"metallicFactor":0,
				"roughnessFactor":0.5
			}
		},
		{
			"doubleSided":true,
			"name":"Material.001",
			"pbrMetallicRoughness":{
				"baseColorFactor":[
					0,
					0,
					0,
					1
				],
				"metallicFactor":0,
				"roughnessFactor":0.5
			}
		},
		{
			"doubleSided":true,
			"name":"Material.005",
			"pbrMetallicRoughness":{
				"baseColorFactor":[
					0.8000000715255737,
					0.31093505024909973,
					0.0819602832198143,
					1
				],
				"metallicFactor":0,
				"roughnessFactor":0.5
			}
		},
		{
			"doubleSided":true,
			"name":"Material.006",
			"pbrMetallicRoughness":{
				"baseColorFactor":[
					0.8000000715255737,
					0.31093505024909973,
					0.0819602832198143,
					1
				],
				"metallicFactor":0,
				"roughnessFactor":0.5
			}
		}
	],
	"meshes":[
		{
			"name":"Rosca",
			"primitives":[
				{
					"attributes":{
						"POSITION":0,
						"NORMAL":1,
						"TEXCOORD_0":2
					},
					"indices":3,
					"material":0
				}
			]
		},
		{
			"name":"Esfera",
			"primitives":[
				{
					"attributes":{
						"POSITION":4,
						"NORMAL":5,
						"TEXCOORD_0":6
					},
					"indices":7,
					"material":1
				}
			]
		},
		{
			"name":"Esfera.001",
			"primitives":[
				{
					"attributes":{
						"POSITION":8,
						"NORMAL":9,
						"TEXCOORD_0":10
					},
					"indices":11,
					"material":2
				}
			]
		},
		{
			"name":"Esfera.002",
			"primitives":[
				{
					"attributes":{
						"POSITION":12,
						"NORMAL":13,
						"TEXCOORD_0":14
					},
					"indices":11,
					"material":3
				}
			]
		},
		{
			"name":"Esfera.003",
			"primitives":[
				{
					"attributes":{
						"POSITION":15,
						"NORMAL":16,
						"TEXCOORD_0":17
					},
					"indices":7,
					"material":4
				}
			]
		},
		{
			"name":"Esfera.004",
			"primitives":[
				{
					"attributes":{
						"POSITION":18,
						"NORMAL":19,
						"TEXCOORD_0":20
					},
					"indices":7,
					"material":5
				}
			]
		}
	],
	"accessors":[
		{
			"bufferView":0,
			"componentType":5126,
			"count":637,
			"max":[
				1.25,
				0.25,
				1.25
			],
			"min":[
				-1.25,
				-0.25,
				-1.25
			],
			"type":"VEC3"
		},
		{
			"bufferView":1,
			"componentType":5126,
			"count":637,
			"type":"VEC3"
		},
		{
			"bufferView":2,
			"componentType":5126,
			"count":637,
			"type":"VEC2"
		},
		{
			"bufferView":3,
			"componentType":5123,
			"count":3456,
			"type":"SCALAR"
		},
		{
			"bufferView":4,
			"componentType":5126,
			"count":559,
			"max":[
				0.9999997019767761,
				1,
				0.9999993443489075
			],
			"min":[
				-0.9999990463256836,
				-1,
				-1
			],
			"type":"VEC3"
		},
		{
			"bufferView":5,
			"componentType":5126,
			"count":559,
			"type":"VEC3"
		},
		{
			"bufferView":6,
			"componentType":5126,
			"count":559,
			"type":"VEC2"
		},
		{
			"bufferView":7,
			"componentType":5123,
			"count":2880,
			"type":"SCALAR"
		},
		{
			"bufferView":8,
			"componentType":5126,
			"count":559,
			"max":[
				0.9999997019767761,
				1,
				0.9999993443489075
			],
			"min":[
				-0.9999990463256836,
				-1,
				-1
			],
			"type":"VEC3"
		},
		{
			"bufferView":9,
			"componentType":5126,
			"count":559,
			"type":"VEC3"
		},
		{
			"bufferView":10,
			"componentType":5126,
			"count":559,
			"type":"VEC2"
		},
		{
			"bufferView":11,
			"componentType":5123,
			"count":2880,
			"type":"SCALAR"
		},
		{
			"bufferView":12,
			"componentType":5126,
			"count":559,
			"max":[
				0.9999997019767761,
				1,
				0.9999993443489075
			],
			"min":[
				-0.9999990463256836,
				-1,
				-1
			],
			"type":"VEC3"
		},
		{
			"bufferView":13,
			"componentType":5126,
			"count":559,
			"type":"VEC3"
		},
		{
			"bufferView":14,
			"componentType":5126,
			"count":559,
			"type":"VEC2"
		},
		{
			"bufferView":15,
			"componentType":5126,
			"count":559,
			"max":[
				0.9999997019767761,
				1,
				0.9999993443489075
			],
			"min":[
				-0.9999990463256836,
				-1,
				-1
			],
			"type":"VEC3"
		},
		{
			"bufferView":16,
			"componentType":5126,
			"count":559,
			"type":"VEC3"
		},
		{
			"bufferView":17,
			"componentType":5126,
			"count":559,
			"type":"VEC2"
		},
		{
			"bufferView":18,
			"componentType":5126,
			"count":559,
			"max":[
				0.9999997019767761,
				1,
				0.9999993443489075
			],
			"min":[
				-0.9999990463256836,
				-1,
				-1
			],
			"type":"VEC3"
		},
		{
			"bufferView":19,
			"componentType":5126,
			"count":559,
			"type":"VEC3"
		},
		{
			"bufferView":20,
			"componentType":5126,
			"count":559,
			"type":"VEC2"
		}
	],
	"bufferViews":[
		{
			"buffer":0,
			"byteLength":7644,
			"byteOffset":0,
			"target":34962
		},
		{
			"buffer":0,
			"byteLength":7644,
			"byteOffset":7644,
			"target":34962
		},
		{
			"buffer":0,
			"byteLength":5096,
			"byteOffset":15288,
			"target":34962
		},
		{
			"buffer":0,
			"byteLength":6912,
			"byteOffset":20384,
			"target":34963
		},
		{
			"buffer":0,
			"byteLength":6708,
			"byteOffset":27296,
			"target":34962
		},
		{
			"buffer":0,
			"byteLength":6708,
			"byteOffset":34004,
			"target":34962
		},
		{
			"buffer":0,
			"byteLength":4472,
			"byteOffset":40712,
			"target":34962
		},
		{
			"buffer":0,
			"byteLength":5760,
			"byteOffset":45184,
			"target":34963
		},
		{
			"buffer":0,
			"byteLength":6708,
			"byteOffset":50944,
			"target":34962
		},
		{
			"buffer":0,
			"byteLength":6708,
			"byteOffset":57652,
			"target":34962
		},
		{
			"buffer":0,
			"byteLength":4472,
			"byteOffset":64360,
			"target":34962
		},
		{
			"buffer":0,
			"byteLength":5760,
			"byteOffset":68832,
			"target":34963
		},
		{
			"buffer":0,
			"byteLength":6708,
			"byteOffset":74592,
			"target":34962
		},
		{
			"buffer":0,
			"byteLength":6708,
			"byteOffset":81300,
			"target":34962
		},
		{
			"buffer":0,
			"byteLength":4472,
			"byteOffset":88008,
			"target":34962
		},
		{
			"buffer":0,
			"byteLength":6708,
			"byteOffset":92480,
			"target":34962
		},
		{
			"buffer":0,
			"byteLength":6708,
			"byteOffset":99188,
			"target":34962
		},
		{
			"buffer":0,
			"byteLength":4472,
			"byteOffset":105896,
			"target":34962
		},
		{
			"buffer":0,
			"byteLength":6708,
			"byteOffset":110368,
			"target":34962
		},
		{
			"buffer":0,
			"byteLength":6708,
			"byteOffset":117076,
			"target":34962
		},
		{
			"buffer":0,
			"byteLength":4472,
			"byteOffset":123784,
			"target":34962
		}
	],
	"buffers":[
		{
			"byteLength":128256,
			"uri":"saturnito_avatar.bin"
		}
	]
}
