{
	"asset":{
		"generator":"Khronos glTF Blender I/O v4.0.44",
		"version":"2.0"
	},
	"scene":0,
	"scenes":[
		{
			"name":"Scene",
			"nodes":[
				0
			]
		}
	],
	"nodes":[
		{
			"mesh":0,
			"name":"Cubo.001",
			"scale":[
				0.29780113697052,
				0.29780113697052,
				0.29780113697052
			],
			"translation":[
				0,
				0.01750451698899269,
				0.6685411930084229
			]
		}
	],
	"materials":[
		{
			"doubleSided":true,
			"name":"Material.006",
			"pbrMetallicRoughness":{
				"baseColorFactor":[
					0.7991025447845459,
					0.2622501254081726,
					0.7681511640548706,
					1
				],
				"metallicFactor":0,
				"roughnessFactor":0.5
			}
		},
		{
			"doubleSided":true,
			"name":"Material.003",
			"pbrMetallicRoughness":{
				"baseColorFactor":[
					0.7835373878479004,
					0.7991025447845459,
					0.06480349600315094,
					1
				],
				"metallicFactor":0,
				"roughnessFactor":0.5
			}
		},
		{
			"doubleSided":true,
			"name":"Material.007",
			"pbrMetallicRoughness":{
				"baseColorFactor":[
					0.7835373878479004,
					0.7991025447845459,
					0.06480349600315094,
					1
				],
				"metallicFactor":0,
				"roughnessFactor":0.5
			}
		},
		{
			"doubleSided":true,
			"name":"Material.005",
			"pbrMetallicRoughness":{
				"baseColorFactor":[
					0.7991025447845459,
					0.2622501254081726,
					0.7681511640548706,
					1
				],
				"metallicFactor":0,
				"roughnessFactor":0.5
			}
		},
		{
			"doubleSided":true,
			"name":"Material.004",
			"pbrMetallicRoughness":{
				"baseColorFactor":[
					0.7991025447845459,
					0.2622501254081726,
					0.7681511640548706,
					1
				],
				"metallicFactor":0,
				"roughnessFactor":0.5
			}
		},
		{
			"doubleSided":true,
			"name":"Material.002",
			"pbrMetallicRoughness":{
				"baseColorFactor":[
					0,
					0,
					0,
					1
				],
				"metallicFactor":0,
				"roughnessFactor":0.5
			}
		},
		{
			"doubleSided":true,
			"name":"Material.001",
			"pbrMetallicRoughness":{
				"baseColorFactor":[
					0,
					0,
					0,
					1
				],
				"metallicFactor":0,
				"roughnessFactor":0.5
			}
		},
		{
			"doubleSided":true,
			"name":"Material.008",
			"pbrMetallicRoughness":{
				"baseColorFactor":[
					0.7835373878479004,
					0.7991025447845459,
					0.06480349600315094,
					1
				],
				"metallicFactor":0,
				"roughnessFactor":0.5
			}
		},
		{
			"doubleSided":true,
			"name":"Material.009",
			"pbrMetallicRoughness":{
				"baseColorFactor":[
					0.8000000715255737,
					0.26082175970077515,
					0.7690832018852234,
					1
				],
				"metallicFactor":0,
				"roughnessFactor":0.5
			}
		},
		{
			"doubleSided":true,
			"name":"Material.010",
			"pbrMetallicRoughness":{
				"baseColorFactor":[
					0.7991025447845459,
					0.2622501254081726,
					0.7681511640548706,
					1
				],
				"metallicFactor":0,
				"roughnessFactor":0.5
			}
		}
	],
	"meshes":[
		{
			"name":"Cubo.001",
			"primitives":[
				{
					"attributes":{
						"POSITION":0,
						"NORMAL":1,
						"TEXCOORD_0":2
					},
					"indices":3,
					"material":0
				},
				{
					"attributes":{
						"POSITION":4,
						"NORMAL":5,
						"TEXCOORD_0":6
					},
					"indices":3,
					"material":1
				},
				{
					"attributes":{
						"POSITION":7,
						"NORMAL":8,
						"TEXCOORD_0":9
					},
					"indices":10,
					"material":2
				},
				{
					"attributes":{
						"POSITION":11,
						"NORMAL":12,
						"TEXCOORD_0":13
					},
					"indices":3,
					"material":3
				},
				{
					"attributes":{
						"POSITION":14,
						"NORMAL":15,
						"TEXCOORD_0":16
					},
					"indices":3,
					"material":4
				},
				{
					"attributes":{
						"POSITION":17,
						"NORMAL":18,
						"TEXCOORD_0":19
					},
					"indices":20,
					"material":5
				},
				{
					"attributes":{
						"POSITION":21,
						"NORMAL":22,
						"TEXCOORD_0":23
					},
					"indices":20,
					"material":6
				},
				{
					"attributes":{
						"POSITION":24,
						"NORMAL":25,
						"TEXCOORD_0":26
					},
					"indices":3,
					"material":7
				},
				{
					"attributes":{
						"POSITION":27,
						"NORMAL":28,
						"TEXCOORD_0":29
					},
					"indices":10,
					"material":8
				},
				{
					"attributes":{
						"POSITION":30,
						"NORMAL":31,
						"TEXCOORD_0":32
					},
					"indices":10,
					"material":9
				}
			]
		}
	],
	"accessors":[
		{
			"bufferView":0,
			"componentType":5126,
			"count":24,
			"max":[
				1,
				1,
				1
			],
			"min":[
				-1,
				-1,
				-1
			],
			"type":"VEC3"
		},
		{
			"bufferView":1,
			"componentType":5126,
			"count":24,
			"type":"VEC3"
		},
		{
			"bufferView":2,
			"componentType":5126,
			"count":24,
			"type":"VEC2"
		},
		{
			"bufferView":3,
			"componentType":5123,
			"count":36,
			"type":"SCALAR"
		},
		{
			"bufferView":4,
			"componentType":5126,
			"count":24,
			"max":[
				1.492553472518921,
				5.596182346343994,
				-0.501235842704773
			],
			"min":[
				-1.492553472518921,
				2.108804225921631,
				-3.9886136054992676
			],
			"type":"VEC3"
		},
		{
			"bufferView":5,
			"componentType":5126,
			"count":24,
			"type":"VEC3"
		},
		{
			"bufferView":6,
			"componentType":5126,
			"count":24,
			"type":"VEC2"
		},
		{
			"bufferView":7,
			"componentType":5126,
			"count":130,
			"max":[
				1.7107335329055786,
				1.6883208751678467,
				0.6430110931396484
			],
			"min":[
				-1.7107335329055786,
				-1.531569242477417,
				-5.1328606605529785
			],
			"type":"VEC3"
		},
		{
			"bufferView":8,
			"componentType":5126,
			"count":130,
			"type":"VEC3"
		},
		{
			"bufferView":9,
			"componentType":5126,
			"count":130,
			"type":"VEC2"
		},
		{
			"bufferView":10,
			"componentType":5123,
			"count":372,
			"type":"SCALAR"
		},
		{
			"bufferView":11,
			"componentType":5126,
			"count":24,
			"max":[
				1,
				1,
				-3.499452590942383
			],
			"min":[
				-1,
				-1,
				-5.499452590942383
			],
			"type":"VEC3"
		},
		{
			"bufferView":12,
			"componentType":5126,
			"count":24,
			"type":"VEC3"
		},
		{
			"bufferView":13,
			"componentType":5126,
			"count":24,
			"type":"VEC2"
		},
		{
			"bufferView":14,
			"componentType":5126,
			"count":24,
			"max":[
				0.6698672771453857,
				-1.7976372241973877,
				-1.5750575065612793
			],
			"min":[
				-0.6698672771453857,
				-3.137371778488159,
				-2.914792060852051
			],
			"type":"VEC3"
		},
		{
			"bufferView":15,
			"componentType":5126,
			"count":24,
			"type":"VEC3"
		},
		{
			"bufferView":16,
			"componentType":5126,
			"count":24,
			"type":"VEC2"
		},
		{
			"bufferView":17,
			"componentType":5126,
			"count":559,
			"max":[
				1.764902114868164,
				4.542304515838623,
				-1.4258538484573364
			],
			"min":[
				1.3171603679656982,
				3.6569676399230957,
				-2.0605573654174805
			],
			"type":"VEC3"
		},
		{
			"bufferView":18,
			"componentType":5126,
			"count":559,
			"type":"VEC3"
		},
		{
			"bufferView":19,
			"componentType":5126,
			"count":559,
			"type":"VEC2"
		},
		{
			"bufferView":20,
			"componentType":5123,
			"count":2880,
			"type":"SCALAR"
		},
		{
			"bufferView":21,
			"componentType":5126,
			"count":559,
			"max":[
				1.764902114868164,
				4.542304515838623,
				-2.479793071746826
			],
			"min":[
				1.3171603679656982,
				3.6569676399230957,
				-3.1144967079162598
			],
			"type":"VEC3"
		},
		{
			"bufferView":22,
			"componentType":5126,
			"count":559,
			"type":"VEC3"
		},
		{
			"bufferView":23,
			"componentType":5126,
			"count":559,
			"type":"VEC2"
		},
		{
			"bufferView":24,
			"componentType":5126,
			"count":24,
			"max":[
				0.28765034675598145,
				2.1783478260040283,
				-1.9572744369506836
			],
			"min":[
				-0.28765034675598145,
				1.6030471324920654,
				-2.5325751304626465
			],
			"type":"VEC3"
		},
		{
			"bufferView":25,
			"componentType":5126,
			"count":24,
			"type":"VEC3"
		},
		{
			"bufferView":26,
			"componentType":5126,
			"count":24,
			"type":"VEC2"
		},
		{
			"bufferView":27,
			"componentType":5126,
			"count":130,
			"max":[
				0.39311400055885315,
				5.190151691436768,
				0.2618955075740814
			],
			"min":[
				-0.39311400055885315,
				4.450244426727295,
				-0.5145062208175659
			],
			"type":"VEC3"
		},
		{
			"bufferView":28,
			"componentType":5126,
			"count":130,
			"type":"VEC3"
		},
		{
			"bufferView":29,
			"componentType":5126,
			"count":130,
			"type":"VEC2"
		},
		{
			"bufferView":30,
			"componentType":5126,
			"count":130,
			"max":[
				0.39311400055885315,
				5.190151691436768,
				-3.9716567993164062
			],
			"min":[
				-0.39311400055885315,
				4.450244426727295,
				-4.748058319091797
			],
			"type":"VEC3"
		},
		{
			"bufferView":31,
			"componentType":5126,
			"count":130,
			"type":"VEC3"
		},
		{
			"bufferView":32,
			"componentType":5126,
			"count":130,
			"type":"VEC2"
		}
	],
	"bufferViews":[
		{
			"buffer":0,
			"byteLength":288,
			"byteOffset":0,
			"target":34962
		},
		{
			"buffer":0,
			"byteLength":288,
			"byteOffset":288,
			"target":34962
		},
		{
			"buffer":0,
			"byteLength":192,
			"byteOffset":576,
			"target":34962
		},
		{
			"buffer":0,
			"byteLength":72,
			"byteOffset":768,
			"target":34963
		},
		{
			"buffer":0,
			"byteLength":288,
			"byteOffset":840,
			"target":34962
		},
		{
			"buffer":0,
			"byteLength":288,
			"byteOffset":1128,
			"target":34962
		},
		{
			"buffer":0,
			"byteLength":192,
			"byteOffset":1416,
			"target":34962
		},
		{
			"buffer":0,
			"byteLength":1560,
			"byteOffset":1608,
			"target":34962
		},
		{
			"buffer":0,
			"byteLength":1560,
			"byteOffset":3168,
			"target":34962
		},
		{
			"buffer":0,
			"byteLength":1040,
			"byteOffset":4728,
			"target":34962
		},
		{
			"buffer":0,
			"byteLength":744,
			"byteOffset":5768,
			"target":34963
		},
		{
			"buffer":0,
			"byteLength":288,
			"byteOffset":6512,
			"target":34962
		},
		{
			"buffer":0,
			"byteLength":288,
			"byteOffset":6800,
			"target":34962
		},
		{
			"buffer":0,
			"byteLength":192,
			"byteOffset":7088,
			"target":34962
		},
		{
			"buffer":0,
			"byteLength":288,
			"byteOffset":7280,
			"target":34962
		},
		{
			"buffer":0,
			"byteLength":288,
			"byteOffset":7568,
			"target":34962
		},
		{
			"buffer":0,
			"byteLength":192,
			"byteOffset":7856,
			"target":34962
		},
		{
			"buffer":0,
			"byteLength":6708,
			"byteOffset":8048,
			"target":34962
		},
		{
			"buffer":0,
			"byteLength":6708,
			"byteOffset":14756,
			"target":34962
		},
		{
			"buffer":0,
			"byteLength":4472,
			"byteOffset":21464,
			"target":34962
		},
		{
			"buffer":0,
			"byteLength":5760,
			"byteOffset":25936,
			"target":34963
		},
		{
			"buffer":0,
			"byteLength":6708,
			"byteOffset":31696,
			"target":34962
		},
		{
			"buffer":0,
			"byteLength":6708,
			"byteOffset":38404,
			"target":34962
		},
		{
			"buffer":0,
			"byteLength":4472,
			"byteOffset":45112,
			"target":34962
		},
		{
			"buffer":0,
			"byteLength":288,
			"byteOffset":49584,
			"target":34962
		},
		{
			"buffer":0,
			"byteLength":288,
			"byteOffset":49872,
			"target":34962
		},
		{
			"buffer":0,
			"byteLength":192,
			"byteOffset":50160,
			"target":34962
		},
		{
			"buffer":0,
			"byteLength":1560,
			"byteOffset":50352,
			"target":34962
		},
		{
			"buffer":0,
			"byteLength":1560,
			"byteOffset":51912,
			"target":34962
		},
		{
			"buffer":0,
			"byteLength":1040,
			"byteOffset":53472,
			"target":34962
		},
		{
			"buffer":0,
			"byteLength":1560,
			"byteOffset":54512,
			"target":34962
		},
		{
			"buffer":0,
			"byteLength":1560,
			"byteOffset":56072,
			"target":34962
		},
		{
			"buffer":0,
			"byteLength":1040,
			"byteOffset":57632,
			"target":34962
		}
	],
	"buffers":[
		{
			"byteLength":58672,
			"uri":"cuadradin_avatar.bin"
		}
	]
}
