{
	"asset":{
		"generator":"Khronos glTF Blender I/O v3.6.27",
		"version":"2.0"
	},
	"scene":0,
	"scenes":[
		{
			"name":"Scene",
			"nodes":[
				0,
				1,
				2,
				3,
				4,
				5,
				6,
				7,
				8,
				9
			]
		}
	],
	"nodes":[
		{
			"mesh":0,
			"name":"Cubo",
			"scale":[
				0.444484144449234,
				0.5192725658416748,
				0.5192725658416748
			],
			"translation":[
				0,
				4.458161354064941,
				0
			]
		},
		{
			"mesh":1,
			"name":"Cilindro",
			"rotation":[
				0.7071068286895752,
				0,
				0,
				0.7071068286895752
			],
			"scale":[
				0.5094584226608276,
				0.8600305914878845,
				0.47944343090057373
			],
			"translation":[
				0,
				3.3342247009277344,
				0
			]
		},
		{
			"mesh":2,
			"name":"Cubo.001",
			"scale":[
				0.29780113697052,
				0.29780113697052,
				0.29780113697052
			],
			"translation":[
				0,
				3.310884475708008,
				0.6685411930084229
			]
		},
		{
			"mesh":3,
			"name":"Cubo.002",
			"scale":[
				0.29780113697052,
				0.29780113697052,
				0.29780113697052
			],
			"translation":[
				0,
				3.310884475708008,
				-0.6714009046554565
			]
		},
		{
			"mesh":4,
			"name":"Cubo.003",
			"scale":[
				0.19948723912239075,
				0.19948723912239075,
				0.19948723912239075
			],
			"translation":[
				0,
				2.576058864593506,
				0
			]
		},
		{
			"mesh":5,
			"name":"Esfera",
			"scale":[
				0.0666690394282341,
				0.13182714581489563,
				0.09450776129961014
			],
			"translation":[
				0.45892083644866943,
				4.5317606925964355,
				0.14941255748271942
			]
		},
		{
			"mesh":6,
			"name":"Esfera.001",
			"scale":[
				0.0666690394282341,
				0.13182714581489563,
				0.09450776129961014
			],
			"translation":[
				0.45892083644866943,
				4.5317606925964355,
				-0.16445177793502808
			]
		},
		{
			"mesh":7,
			"name":"Cubo.004",
			"scale":[
				0.0856626033782959,
				0.0856626033782959,
				0.0856626033782959
			],
			"translation":[
				0,
				3.873936414718628,
				0
			]
		},
		{
			"mesh":8,
			"name":"Cilindro.001",
			"rotation":[
				0.7071068286895752,
				0,
				0,
				0.7071068286895752
			],
			"scale":[
				0.1170697957277298,
				0.1156066507101059,
				0.1101725772023201
			],
			"translation":[
				0,
				4.746345043182373,
				0.6309272646903992
			]
		},
		{
			"mesh":9,
			"name":"Cilindro.002",
			"rotation":[
				0.7071068286895752,
				0,
				0,
				0.7071068286895752
			],
			"scale":[
				0.1170697957277298,
				0.1156066507101059,
				0.1101725772023201
			],
			"translation":[
				0,
				4.746345043182373,
				-0.6298293471336365
			]
		}
	],
	"materials":[
		{
			"doubleSided":true,
			"name":"Material.003",
			"pbrMetallicRoughness":{
				"baseColorFactor":[
					0.7835373878479004,
					0.7991025447845459,
					0.06480349600315094,
					1
				],
				"metallicFactor":0,
				"roughnessFactor":0.5
			}
		},
		{
			"doubleSided":true,
			"name":"Material.007",
			"pbrMetallicRoughness":{
				"baseColorFactor":[
					0.7835373878479004,
					0.7991025447845459,
					0.06480349600315094,
					1
				],
				"metallicFactor":0,
				"roughnessFactor":0.5
			}
		},
		{
			"doubleSided":true,
			"name":"Material.006",
			"pbrMetallicRoughness":{
				"baseColorFactor":[
					0.7991025447845459,
					0.2622501254081726,
					0.7681511640548706,
					1
				],
				"metallicFactor":0,
				"roughnessFactor":0.5
			}
		},
		{
			"doubleSided":true,
			"name":"Material.005",
			"pbrMetallicRoughness":{
				"baseColorFactor":[
					0.7991025447845459,
					0.2622501254081726,
					0.7681511640548706,
					1
				],
				"metallicFactor":0,
				"roughnessFactor":0.5
			}
		},
		{
			"doubleSided":true,
			"name":"Material.004",
			"pbrMetallicRoughness":{
				"baseColorFactor":[
					0.7991025447845459,
					0.2622501254081726,
					0.7681511640548706,
					1
				],
				"metallicFactor":0,
				"roughnessFactor":0.5
			}
		},
		{
			"doubleSided":true,
			"name":"Material.002",
			"pbrMetallicRoughness":{
				"baseColorFactor":[
					0,
					0,
					0,
					1
				],
				"metallicFactor":0,
				"roughnessFactor":0.5
			}
		},
		{
			"doubleSided":true,
			"name":"Material.001",
			"pbrMetallicRoughness":{
				"baseColorFactor":[
					0,
					0,
					0,
					1
				],
				"metallicFactor":0,
				"roughnessFactor":0.5
			}
		},
		{
			"doubleSided":true,
			"name":"Material.008",
			"pbrMetallicRoughness":{
				"baseColorFactor":[
					0.7835373878479004,
					0.7991025447845459,
					0.06480349600315094,
					1
				],
				"metallicFactor":0,
				"roughnessFactor":0.5
			}
		},
		{
			"doubleSided":true,
			"name":"Material.009",
			"pbrMetallicRoughness":{
				"baseColorFactor":[
					0.8000000715255737,
					0.26082175970077515,
					0.7690832018852234,
					1
				],
				"metallicFactor":0,
				"roughnessFactor":0.5
			}
		},
		{
			"doubleSided":true,
			"name":"Material.010",
			"pbrMetallicRoughness":{
				"baseColorFactor":[
					0.7991025447845459,
					0.2622501254081726,
					0.7681511640548706,
					1
				],
				"metallicFactor":0,
				"roughnessFactor":0.5
			}
		}
	],
	"meshes":[
		{
			"name":"Cubo",
			"primitives":[
				{
					"attributes":{
						"POSITION":0,
						"NORMAL":1,
						"TEXCOORD_0":2
					},
					"indices":3,
					"material":0
				}
			]
		},
		{
			"name":"Cilindro",
			"primitives":[
				{
					"attributes":{
						"POSITION":4,
						"NORMAL":5,
						"TEXCOORD_0":6
					},
					"indices":7,
					"material":1
				}
			]
		},
		{
			"name":"Cubo.001",
			"primitives":[
				{
					"attributes":{
						"POSITION":8,
						"NORMAL":9,
						"TEXCOORD_0":10
					},
					"indices":3,
					"material":2
				}
			]
		},
		{
			"name":"Cubo.002",
			"primitives":[
				{
					"attributes":{
						"POSITION":11,
						"NORMAL":12,
						"TEXCOORD_0":13
					},
					"indices":3,
					"material":3
				}
			]
		},
		{
			"name":"Cubo.003",
			"primitives":[
				{
					"attributes":{
						"POSITION":14,
						"NORMAL":15,
						"TEXCOORD_0":16
					},
					"indices":3,
					"material":4
				}
			]
		},
		{
			"name":"Esfera",
			"primitives":[
				{
					"attributes":{
						"POSITION":17,
						"NORMAL":18,
						"TEXCOORD_0":19
					},
					"indices":20,
					"material":5
				}
			]
		},
		{
			"name":"Esfera.001",
			"primitives":[
				{
					"attributes":{
						"POSITION":21,
						"NORMAL":22,
						"TEXCOORD_0":23
					},
					"indices":20,
					"material":6
				}
			]
		},
		{
			"name":"Cubo.004",
			"primitives":[
				{
					"attributes":{
						"POSITION":24,
						"NORMAL":25,
						"TEXCOORD_0":26
					},
					"indices":3,
					"material":7
				}
			]
		},
		{
			"name":"Cilindro.001",
			"primitives":[
				{
					"attributes":{
						"POSITION":27,
						"NORMAL":28,
						"TEXCOORD_0":29
					},
					"indices":7,
					"material":8
				}
			]
		},
		{
			"name":"Cilindro.002",
			"primitives":[
				{
					"attributes":{
						"POSITION":30,
						"NORMAL":31,
						"TEXCOORD_0":32
					},
					"indices":7,
					"material":9
				}
			]
		}
	],
	"accessors":[
		{
			"bufferView":0,
			"componentType":5126,
			"count":24,
			"max":[
				1,
				1,
				1
			],
			"min":[
				-1,
				-1,
				-1
			],
			"type":"VEC3"
		},
		{
			"bufferView":1,
			"componentType":5126,
			"count":24,
			"type":"VEC3"
		},
		{
			"bufferView":2,
			"componentType":5126,
			"count":24,
			"type":"VEC2"
		},
		{
			"bufferView":3,
			"componentType":5123,
			"count":36,
			"type":"SCALAR"
		},
		{
			"bufferView":4,
			"componentType":5126,
			"count":130,
			"max":[
				1,
				1,
				1
			],
			"min":[
				-1,
				-1,
				-1
			],
			"type":"VEC3"
		},
		{
			"bufferView":5,
			"componentType":5126,
			"count":130,
			"type":"VEC3"
		},
		{
			"bufferView":6,
			"componentType":5126,
			"count":130,
			"type":"VEC2"
		},
		{
			"bufferView":7,
			"componentType":5123,
			"count":372,
			"type":"SCALAR"
		},
		{
			"bufferView":8,
			"componentType":5126,
			"count":24,
			"max":[
				1,
				1,
				1
			],
			"min":[
				-1,
				-1,
				-1
			],
			"type":"VEC3"
		},
		{
			"bufferView":9,
			"componentType":5126,
			"count":24,
			"type":"VEC3"
		},
		{
			"bufferView":10,
			"componentType":5126,
			"count":24,
			"type":"VEC2"
		},
		{
			"bufferView":11,
			"componentType":5126,
			"count":24,
			"max":[
				1,
				1,
				1
			],
			"min":[
				-1,
				-1,
				-1
			],
			"type":"VEC3"
		},
		{
			"bufferView":12,
			"componentType":5126,
			"count":24,
			"type":"VEC3"
		},
		{
			"bufferView":13,
			"componentType":5126,
			"count":24,
			"type":"VEC2"
		},
		{
			"bufferView":14,
			"componentType":5126,
			"count":24,
			"max":[
				1,
				1,
				1
			],
			"min":[
				-1,
				-1,
				-1
			],
			"type":"VEC3"
		},
		{
			"bufferView":15,
			"componentType":5126,
			"count":24,
			"type":"VEC3"
		},
		{
			"bufferView":16,
			"componentType":5126,
			"count":24,
			"type":"VEC2"
		},
		{
			"bufferView":17,
			"componentType":5126,
			"count":559,
			"max":[
				0.9999997019767761,
				1,
				0.9999993443489075
			],
			"min":[
				-0.9999990463256836,
				-1,
				-1
			],
			"type":"VEC3"
		},
		{
			"bufferView":18,
			"componentType":5126,
			"count":559,
			"type":"VEC3"
		},
		{
			"bufferView":19,
			"componentType":5126,
			"count":559,
			"type":"VEC2"
		},
		{
			"bufferView":20,
			"componentType":5123,
			"count":2880,
			"type":"SCALAR"
		},
		{
			"bufferView":21,
			"componentType":5126,
			"count":559,
			"max":[
				0.9999997019767761,
				1,
				0.9999993443489075
			],
			"min":[
				-0.9999990463256836,
				-1,
				-1
			],
			"type":"VEC3"
		},
		{
			"bufferView":22,
			"componentType":5126,
			"count":559,
			"type":"VEC3"
		},
		{
			"bufferView":23,
			"componentType":5126,
			"count":559,
			"type":"VEC2"
		},
		{
			"bufferView":24,
			"componentType":5126,
			"count":24,
			"max":[
				1,
				1,
				1
			],
			"min":[
				-1,
				-1,
				-1
			],
			"type":"VEC3"
		},
		{
			"bufferView":25,
			"componentType":5126,
			"count":24,
			"type":"VEC3"
		},
		{
			"bufferView":26,
			"componentType":5126,
			"count":24,
			"type":"VEC2"
		},
		{
			"bufferView":27,
			"componentType":5126,
			"count":130,
			"max":[
				1,
				1,
				1
			],
			"min":[
				-1,
				-1,
				-1
			],
			"type":"VEC3"
		},
		{
			"bufferView":28,
			"componentType":5126,
			"count":130,
			"type":"VEC3"
		},
		{
			"bufferView":29,
			"componentType":5126,
			"count":130,
			"type":"VEC2"
		},
		{
			"bufferView":30,
			"componentType":5126,
			"count":130,
			"max":[
				1,
				1,
				1
			],
			"min":[
				-1,
				-1,
				-1
			],
			"type":"VEC3"
		},
		{
			"bufferView":31,
			"componentType":5126,
			"count":130,
			"type":"VEC3"
		},
		{
			"bufferView":32,
			"componentType":5126,
			"count":130,
			"type":"VEC2"
		}
	],
	"bufferViews":[
		{
			"buffer":0,
			"byteLength":288,
			"byteOffset":0,
			"target":34962
		},
		{
			"buffer":0,
			"byteLength":288,
			"byteOffset":288,
			"target":34962
		},
		{
			"buffer":0,
			"byteLength":192,
			"byteOffset":576,
			"target":34962
		},
		{
			"buffer":0,
			"byteLength":72,
			"byteOffset":768,
			"target":34963
		},
		{
			"buffer":0,
			"byteLength":1560,
			"byteOffset":840,
			"target":34962
		},
		{
			"buffer":0,
			"byteLength":1560,
			"byteOffset":2400,
			"target":34962
		},
		{
			"buffer":0,
			"byteLength":1040,
			"byteOffset":3960,
			"target":34962
		},
		{
			"buffer":0,
			"byteLength":744,
			"byteOffset":5000,
			"target":34963
		},
		{
			"buffer":0,
			"byteLength":288,
			"byteOffset":5744,
			"target":34962
		},
		{
			"buffer":0,
			"byteLength":288,
			"byteOffset":6032,
			"target":34962
		},
		{
			"buffer":0,
			"byteLength":192,
			"byteOffset":6320,
			"target":34962
		},
		{
			"buffer":0,
			"byteLength":288,
			"byteOffset":6512,
			"target":34962
		},
		{
			"buffer":0,
			"byteLength":288,
			"byteOffset":6800,
			"target":34962
		},
		{
			"buffer":0,
			"byteLength":192,
			"byteOffset":7088,
			"target":34962
		},
		{
			"buffer":0,
			"byteLength":288,
			"byteOffset":7280,
			"target":34962
		},
		{
			"buffer":0,
			"byteLength":288,
			"byteOffset":7568,
			"target":34962
		},
		{
			"buffer":0,
			"byteLength":192,
			"byteOffset":7856,
			"target":34962
		},
		{
			"buffer":0,
			"byteLength":6708,
			"byteOffset":8048,
			"target":34962
		},
		{
			"buffer":0,
			"byteLength":6708,
			"byteOffset":14756,
			"target":34962
		},
		{
			"buffer":0,
			"byteLength":4472,
			"byteOffset":21464,
			"target":34962
		},
		{
			"buffer":0,
			"byteLength":5760,
			"byteOffset":25936,
			"target":34963
		},
		{
			"buffer":0,
			"byteLength":6708,
			"byteOffset":31696,
			"target":34962
		},
		{
			"buffer":0,
			"byteLength":6708,
			"byteOffset":38404,
			"target":34962
		},
		{
			"buffer":0,
			"byteLength":4472,
			"byteOffset":45112,
			"target":34962
		},
		{
			"buffer":0,
			"byteLength":288,
			"byteOffset":49584,
			"target":34962
		},
		{
			"buffer":0,
			"byteLength":288,
			"byteOffset":49872,
			"target":34962
		},
		{
			"buffer":0,
			"byteLength":192,
			"byteOffset":50160,
			"target":34962
		},
		{
			"buffer":0,
			"byteLength":1560,
			"byteOffset":50352,
			"target":34962
		},
		{
			"buffer":0,
			"byteLength":1560,
			"byteOffset":51912,
			"target":34962
		},
		{
			"buffer":0,
			"byteLength":1040,
			"byteOffset":53472,
			"target":34962
		},
		{
			"buffer":0,
			"byteLength":1560,
			"byteOffset":54512,
			"target":34962
		},
		{
			"buffer":0,
			"byteLength":1560,
			"byteOffset":56072,
			"target":34962
		},
		{
			"buffer":0,
			"byteLength":1040,
			"byteOffset":57632,
			"target":34962
		}
	],
	"buffers":[
		{
			"byteLength":58672,
			"uri":"cuadradin_avatar.bin"
		}
	]
}
