{
	"asset":{
		"generator":"Khronos glTF Blender I/O v3.6.27",
		"version":"2.0"
	},
	"scene":0,
	"scenes":[
		{
			"name":"Scene",
			"nodes":[
				0,
				1,
				2,
				3,
				4,
				5
			]
		}
	],
	"nodes":[
		{
			"mesh":0,
			"name":"Cilindro",
			"scale":[
				1,
				0.4626295566558838,
				1
			],
			"translation":[
				0,
				2.311216115951538,
				0
			]
		},
		{
			"mesh":1,
			"name":"Cono",
			"scale":[
				1,
				0.6714312434196472,
				1
			],
			"translation":[
				0,
				3.448788642883301,
				0
			]
		},
		{
			"mesh":2,
			"name":"Cilindro.001",
			"scale":[
				0.24547140300273895,
				0.5745510458946228,
				0.29744577407836914
			],
			"translation":[
				0,
				1.4137217998504639,
				0
			]
		},
		{
			"mesh":3,
			"name":"Esfera",
			"rotation":[
				0.0077499933540821075,
				-0.0049979910254478455,
				-0.006320839282125235,
				0.9999375939369202
			],
			"scale":[
				0.07690935581922531,
				0.19772814214229584,
				0.13111215829849243
			],
			"translation":[
				0.9899516701698303,
				2.3488590717315674,
				0.2943468987941742
			]
		},
		{
			"mesh":4,
			"name":"Esfera.001",
			"rotation":[
				0.0077499933540821075,
				-0.0049979910254478455,
				-0.006320839282125235,
				0.9999375939369202
			],
			"scale":[
				0.07690935581922531,
				0.19772814214229584,
				0.13111215829849243
			],
			"translation":[
				0.9899516701698303,
				2.3488590717315674,
				-0.2931274175643921
			]
		},
		{
			"mesh":5,
			"name":"Esfera.002",
			"scale":[
				0.21779775619506836,
				0.21779775619506836,
				0.21779775619506836
			],
			"translation":[
				0,
				0.5332381129264832,
				0
			]
		}
	],
	"materials":[
		{
			"doubleSided":true,
			"name":"Material.009",
			"pbrMetallicRoughness":{
				"baseColorFactor":[
					0.09084112197160721,
					0.4286901354789734,
					0.4396570920944214,
					1
				],
				"metallicFactor":0,
				"roughnessFactor":0.5
			}
		},
		{
			"doubleSided":true,
			"name":"Material.011",
			"pbrMetallicRoughness":{
				"baseColorFactor":[
					0.7991030812263489,
					0.15592625737190247,
					0,
					1
				],
				"metallicFactor":0,
				"roughnessFactor":0.5
			}
		},
		{
			"doubleSided":true,
			"name":"Material.010",
			"pbrMetallicRoughness":{
				"baseColorFactor":[
					0.09084112197160721,
					0.4286901354789734,
					0.4396570920944214,
					1
				],
				"metallicFactor":0,
				"roughnessFactor":0.5
			}
		},
		{
			"doubleSided":true,
			"name":"Material.007",
			"pbrMetallicRoughness":{
				"baseColorFactor":[
					0,
					0,
					0,
					1
				],
				"metallicFactor":0,
				"roughnessFactor":0.5
			}
		},
		{
			"doubleSided":true,
			"name":"Material.008",
			"pbrMetallicRoughness":{
				"baseColorFactor":[
					0,
					0,
					0,
					1
				],
				"metallicFactor":0,
				"roughnessFactor":0.5
			}
		},
		{
			"doubleSided":true,
			"name":"Material.012",
			"pbrMetallicRoughness":{
				"baseColorFactor":[
					0.7991030812263489,
					0.15592625737190247,
					0,
					1
				],
				"metallicFactor":0,
				"roughnessFactor":0.5
			}
		}
	],
	"meshes":[
		{
			"name":"Cilindro",
			"primitives":[
				{
					"attributes":{
						"POSITION":0,
						"NORMAL":1,
						"TEXCOORD_0":2
					},
					"indices":3,
					"material":0
				}
			]
		},
		{
			"name":"Cono",
			"primitives":[
				{
					"attributes":{
						"POSITION":4,
						"NORMAL":5,
						"TEXCOORD_0":6
					},
					"indices":7,
					"material":1
				}
			]
		},
		{
			"name":"Cilindro.002",
			"primitives":[
				{
					"attributes":{
						"POSITION":8,
						"NORMAL":9,
						"TEXCOORD_0":10
					},
					"indices":3,
					"material":2
				}
			]
		},
		{
			"name":"Esfera.005",
			"primitives":[
				{
					"attributes":{
						"POSITION":11,
						"NORMAL":12,
						"TEXCOORD_0":13
					},
					"indices":14,
					"material":3
				}
			]
		},
		{
			"name":"Esfera.006",
			"primitives":[
				{
					"attributes":{
						"POSITION":15,
						"NORMAL":16,
						"TEXCOORD_0":17
					},
					"indices":14,
					"material":4
				}
			]
		},
		{
			"name":"Esfera.007",
			"primitives":[
				{
					"attributes":{
						"POSITION":18,
						"NORMAL":19,
						"TEXCOORD_0":20
					},
					"indices":21,
					"material":5
				}
			]
		}
	],
	"accessors":[
		{
			"bufferView":0,
			"componentType":5126,
			"count":192,
			"max":[
				1,
				1,
				1
			],
			"min":[
				-1,
				-1,
				-1
			],
			"type":"VEC3"
		},
		{
			"bufferView":1,
			"componentType":5126,
			"count":192,
			"type":"VEC3"
		},
		{
			"bufferView":2,
			"componentType":5126,
			"count":192,
			"type":"VEC2"
		},
		{
			"bufferView":3,
			"componentType":5123,
			"count":372,
			"type":"SCALAR"
		},
		{
			"bufferView":4,
			"componentType":5126,
			"count":128,
			"max":[
				1,
				0.1852485090494156,
				1
			],
			"min":[
				-1,
				-1,
				-1
			],
			"type":"VEC3"
		},
		{
			"bufferView":5,
			"componentType":5126,
			"count":128,
			"type":"VEC3"
		},
		{
			"bufferView":6,
			"componentType":5126,
			"count":128,
			"type":"VEC2"
		},
		{
			"bufferView":7,
			"componentType":5123,
			"count":186,
			"type":"SCALAR"
		},
		{
			"bufferView":8,
			"componentType":5126,
			"count":192,
			"max":[
				1,
				1,
				1
			],
			"min":[
				-1,
				-1,
				-1
			],
			"type":"VEC3"
		},
		{
			"bufferView":9,
			"componentType":5126,
			"count":192,
			"type":"VEC3"
		},
		{
			"bufferView":10,
			"componentType":5126,
			"count":192,
			"type":"VEC2"
		},
		{
			"bufferView":11,
			"componentType":5126,
			"count":1984,
			"max":[
				0.9999997019767761,
				1,
				0.9999993443489075
			],
			"min":[
				-0.9999990463256836,
				-1,
				-1
			],
			"type":"VEC3"
		},
		{
			"bufferView":12,
			"componentType":5126,
			"count":1984,
			"type":"VEC3"
		},
		{
			"bufferView":13,
			"componentType":5126,
			"count":1984,
			"type":"VEC2"
		},
		{
			"bufferView":14,
			"componentType":5123,
			"count":2880,
			"type":"SCALAR"
		},
		{
			"bufferView":15,
			"componentType":5126,
			"count":1984,
			"max":[
				0.9999997019767761,
				1,
				0.9999993443489075
			],
			"min":[
				-0.9999990463256836,
				-1,
				-1
			],
			"type":"VEC3"
		},
		{
			"bufferView":16,
			"componentType":5126,
			"count":1984,
			"type":"VEC3"
		},
		{
			"bufferView":17,
			"componentType":5126,
			"count":1984,
			"type":"VEC2"
		},
		{
			"bufferView":18,
			"componentType":5126,
			"count":1984,
			"max":[
				0.9999997019767761,
				1,
				0.9999993443489075
			],
			"min":[
				-0.9999990463256836,
				-1,
				-1
			],
			"type":"VEC3"
		},
		{
			"bufferView":19,
			"componentType":5126,
			"count":1984,
			"type":"VEC3"
		},
		{
			"bufferView":20,
			"componentType":5126,
			"count":1984,
			"type":"VEC2"
		},
		{
			"bufferView":21,
			"componentType":5123,
			"count":2880,
			"type":"SCALAR"
		}
	],
	"bufferViews":[
		{
			"buffer":0,
			"byteLength":2304,
			"byteOffset":0,
			"target":34962
		},
		{
			"buffer":0,
			"byteLength":2304,
			"byteOffset":2304,
			"target":34962
		},
		{
			"buffer":0,
			"byteLength":1536,
			"byteOffset":4608,
			"target":34962
		},
		{
			"buffer":0,
			"byteLength":744,
			"byteOffset":6144,
			"target":34963
		},
		{
			"buffer":0,
			"byteLength":1536,
			"byteOffset":6888,
			"target":34962
		},
		{
			"buffer":0,
			"byteLength":1536,
			"byteOffset":8424,
			"target":34962
		},
		{
			"buffer":0,
			"byteLength":1024,
			"byteOffset":9960,
			"target":34962
		},
		{
			"buffer":0,
			"byteLength":372,
			"byteOffset":10984,
			"target":34963
		},
		{
			"buffer":0,
			"byteLength":2304,
			"byteOffset":11356,
			"target":34962
		},
		{
			"buffer":0,
			"byteLength":2304,
			"byteOffset":13660,
			"target":34962
		},
		{
			"buffer":0,
			"byteLength":1536,
			"byteOffset":15964,
			"target":34962
		},
		{
			"buffer":0,
			"byteLength":23808,
			"byteOffset":17500,
			"target":34962
		},
		{
			"buffer":0,
			"byteLength":23808,
			"byteOffset":41308,
			"target":34962
		},
		{
			"buffer":0,
			"byteLength":15872,
			"byteOffset":65116,
			"target":34962
		},
		{
			"buffer":0,
			"byteLength":5760,
			"byteOffset":80988,
			"target":34963
		},
		{
			"buffer":0,
			"byteLength":23808,
			"byteOffset":86748,
			"target":34962
		},
		{
			"buffer":0,
			"byteLength":23808,
			"byteOffset":110556,
			"target":34962
		},
		{
			"buffer":0,
			"byteLength":15872,
			"byteOffset":134364,
			"target":34962
		},
		{
			"buffer":0,
			"byteLength":23808,
			"byteOffset":150236,
			"target":34962
		},
		{
			"buffer":0,
			"byteLength":23808,
			"byteOffset":174044,
			"target":34962
		},
		{
			"buffer":0,
			"byteLength":15872,
			"byteOffset":197852,
			"target":34962
		},
		{
			"buffer":0,
			"byteLength":5760,
			"byteOffset":213724,
			"target":34963
		}
	],
	"buffers":[
		{
			"byteLength":219484,
			"uri":"lapicito_avatar_prueba.bin"
		}
	]
}
