{
	"asset":{
		"generator":"Khronos glTF Blender I/O v3.6.27",
		"version":"2.0"
	},
	"scene":0,
	"scenes":[
		{
			"name":"Scene",
			"nodes":[
				0,
				1,
				2,
				3,
				4,
				5,
				6
			]
		}
	],
	"nodes":[
		{
			"mesh":0,
			"name":"Esfera",
			"scale":[
				0.6652409434318542,
				1.4787356853485107,
				0.875163197517395
			],
			"translation":[
				0,
				1.9846458435058594,
				0
			]
		},
		{
			"mesh":1,
			"name":"Cono",
			"rotation":[
				0.3420201241970062,
				0,
				0,
				0.9396926760673523
			],
			"scale":[
				0.2911589741706848,
				0.26390644907951355,
				0.35354316234588623
			],
			"translation":[
				0,
				3.137613534927368,
				0.6348900198936462
			]
		},
		{
			"mesh":2,
			"name":"Cono.001",
			"rotation":[
				-0.3420201241970062,
				0,
				0,
				0.9396926760673523
			],
			"scale":[
				0.2911589741706848,
				0.26390644907951355,
				0.35354316234588623
			],
			"translation":[
				0,
				3.137613534927368,
				-0.6491538882255554
			]
		},
		{
			"mesh":3,
			"name":"Cono.002",
			"rotation":[
				0.9396926164627075,
				0,
				0,
				0.3420201539993286
			],
			"scale":[
				0.2911589741706848,
				0.26390644907951355,
				0.3535431921482086
			],
			"translation":[
				0,
				0.7619759440422058,
				0.6064887046813965
			]
		},
		{
			"mesh":4,
			"name":"Cono.003",
			"rotation":[
				-0.9396926164627075,
				0,
				0,
				0.3420202136039734
			],
			"scale":[
				0.2911589741706848,
				0.26390644907951355,
				0.35354316234588623
			],
			"translation":[
				0,
				0.7619759440422058,
				-0.6210321187973022
			]
		},
		{
			"mesh":5,
			"name":"Esfera.001",
			"scale":[
				0.06208156421780586,
				0.17709016799926758,
				0.10083925724029541
			],
			"translation":[
				0.6247662901878357,
				2.2987260818481445,
				0.2413269728422165
			]
		},
		{
			"mesh":6,
			"name":"Esfera.002",
			"scale":[
				0.06208156421780586,
				0.17709016799926758,
				0.10083925724029541
			],
			"translation":[
				0.6247662901878357,
				2.2987260818481445,
				-0.25773322582244873
			]
		}
	],
	"materials":[
		{
			"doubleSided":true,
			"name":"Material.007",
			"pbrMetallicRoughness":{
				"baseColorFactor":[
					0.3931141793727875,
					0.02346743829548359,
					0.03297547250986099,
					1
				],
				"metallicFactor":0,
				"roughnessFactor":0.5
			}
		},
		{
			"doubleSided":true,
			"name":"Material.004",
			"pbrMetallicRoughness":{
				"baseColorFactor":[
					0.15292616188526154,
					0.015208466909825802,
					0.019382361322641373,
					1
				],
				"metallicFactor":0,
				"roughnessFactor":0.5
			}
		},
		{
			"doubleSided":true,
			"name":"Material.003",
			"pbrMetallicRoughness":{
				"baseColorFactor":[
					0.15292616188526154,
					0.015208466909825802,
					0.019382361322641373,
					1
				],
				"metallicFactor":0,
				"roughnessFactor":0.5
			}
		},
		{
			"doubleSided":true,
			"name":"Material.006",
			"pbrMetallicRoughness":{
				"baseColorFactor":[
					0.15292616188526154,
					0.015208466909825802,
					0.019382361322641373,
					1
				],
				"metallicFactor":0,
				"roughnessFactor":0.5
			}
		},
		{
			"doubleSided":true,
			"name":"Material.005",
			"pbrMetallicRoughness":{
				"baseColorFactor":[
					0.15292616188526154,
					0.015208466909825802,
					0.019382361322641373,
					1
				],
				"metallicFactor":0,
				"roughnessFactor":0.5
			}
		},
		{
			"doubleSided":true,
			"name":"Material.002",
			"pbrMetallicRoughness":{
				"baseColorFactor":[
					0,
					0,
					0,
					1
				],
				"metallicFactor":0,
				"roughnessFactor":0.5
			}
		},
		{
			"doubleSided":true,
			"name":"Material.001",
			"pbrMetallicRoughness":{
				"baseColorFactor":[
					0,
					0,
					0,
					1
				],
				"metallicFactor":0,
				"roughnessFactor":0.5
			}
		}
	],
	"meshes":[
		{
			"name":"Esfera",
			"primitives":[
				{
					"attributes":{
						"POSITION":0,
						"NORMAL":1,
						"TEXCOORD_0":2
					},
					"indices":3,
					"material":0
				}
			]
		},
		{
			"name":"Cono",
			"primitives":[
				{
					"attributes":{
						"POSITION":4,
						"NORMAL":5,
						"TEXCOORD_0":6
					},
					"indices":7,
					"material":1
				}
			]
		},
		{
			"name":"Cono.001",
			"primitives":[
				{
					"attributes":{
						"POSITION":8,
						"NORMAL":9,
						"TEXCOORD_0":10
					},
					"indices":7,
					"material":2
				}
			]
		},
		{
			"name":"Cono.002",
			"primitives":[
				{
					"attributes":{
						"POSITION":11,
						"NORMAL":12,
						"TEXCOORD_0":13
					},
					"indices":7,
					"material":3
				}
			]
		},
		{
			"name":"Cono.003",
			"primitives":[
				{
					"attributes":{
						"POSITION":14,
						"NORMAL":15,
						"TEXCOORD_0":16
					},
					"indices":7,
					"material":4
				}
			]
		},
		{
			"name":"Esfera.001",
			"primitives":[
				{
					"attributes":{
						"POSITION":17,
						"NORMAL":18,
						"TEXCOORD_0":19
					},
					"indices":20,
					"material":5
				}
			]
		},
		{
			"name":"Esfera.002",
			"primitives":[
				{
					"attributes":{
						"POSITION":21,
						"NORMAL":22,
						"TEXCOORD_0":23
					},
					"indices":20,
					"material":6
				}
			]
		}
	],
	"accessors":[
		{
			"bufferView":0,
			"componentType":5126,
			"count":559,
			"max":[
				0.9999997019767761,
				1,
				0.9999993443489075
			],
			"min":[
				-0.9999990463256836,
				-1,
				-1
			],
			"type":"VEC3"
		},
		{
			"bufferView":1,
			"componentType":5126,
			"count":559,
			"type":"VEC3"
		},
		{
			"bufferView":2,
			"componentType":5126,
			"count":559,
			"type":"VEC2"
		},
		{
			"bufferView":3,
			"componentType":5123,
			"count":2880,
			"type":"SCALAR"
		},
		{
			"bufferView":4,
			"componentType":5126,
			"count":128,
			"max":[
				1,
				1,
				1
			],
			"min":[
				-1,
				-1,
				-1
			],
			"type":"VEC3"
		},
		{
			"bufferView":5,
			"componentType":5126,
			"count":128,
			"type":"VEC3"
		},
		{
			"bufferView":6,
			"componentType":5126,
			"count":128,
			"type":"VEC2"
		},
		{
			"bufferView":7,
			"componentType":5123,
			"count":186,
			"type":"SCALAR"
		},
		{
			"bufferView":8,
			"componentType":5126,
			"count":128,
			"max":[
				1,
				1,
				1
			],
			"min":[
				-1,
				-1,
				-1
			],
			"type":"VEC3"
		},
		{
			"bufferView":9,
			"componentType":5126,
			"count":128,
			"type":"VEC3"
		},
		{
			"bufferView":10,
			"componentType":5126,
			"count":128,
			"type":"VEC2"
		},
		{
			"bufferView":11,
			"componentType":5126,
			"count":128,
			"max":[
				1,
				1,
				1
			],
			"min":[
				-1,
				-1,
				-1
			],
			"type":"VEC3"
		},
		{
			"bufferView":12,
			"componentType":5126,
			"count":128,
			"type":"VEC3"
		},
		{
			"bufferView":13,
			"componentType":5126,
			"count":128,
			"type":"VEC2"
		},
		{
			"bufferView":14,
			"componentType":5126,
			"count":128,
			"max":[
				1,
				1,
				1
			],
			"min":[
				-1,
				-1,
				-1
			],
			"type":"VEC3"
		},
		{
			"bufferView":15,
			"componentType":5126,
			"count":128,
			"type":"VEC3"
		},
		{
			"bufferView":16,
			"componentType":5126,
			"count":128,
			"type":"VEC2"
		},
		{
			"bufferView":17,
			"componentType":5126,
			"count":559,
			"max":[
				0.9999997019767761,
				1,
				0.9999993443489075
			],
			"min":[
				-0.9999990463256836,
				-1,
				-1
			],
			"type":"VEC3"
		},
		{
			"bufferView":18,
			"componentType":5126,
			"count":559,
			"type":"VEC3"
		},
		{
			"bufferView":19,
			"componentType":5126,
			"count":559,
			"type":"VEC2"
		},
		{
			"bufferView":20,
			"componentType":5123,
			"count":2880,
			"type":"SCALAR"
		},
		{
			"bufferView":21,
			"componentType":5126,
			"count":559,
			"max":[
				0.9999997019767761,
				1,
				0.9999993443489075
			],
			"min":[
				-0.9999990463256836,
				-1,
				-1
			],
			"type":"VEC3"
		},
		{
			"bufferView":22,
			"componentType":5126,
			"count":559,
			"type":"VEC3"
		},
		{
			"bufferView":23,
			"componentType":5126,
			"count":559,
			"type":"VEC2"
		}
	],
	"bufferViews":[
		{
			"buffer":0,
			"byteLength":6708,
			"byteOffset":0,
			"target":34962
		},
		{
			"buffer":0,
			"byteLength":6708,
			"byteOffset":6708,
			"target":34962
		},
		{
			"buffer":0,
			"byteLength":4472,
			"byteOffset":13416,
			"target":34962
		},
		{
			"buffer":0,
			"byteLength":5760,
			"byteOffset":17888,
			"target":34963
		},
		{
			"buffer":0,
			"byteLength":1536,
			"byteOffset":23648,
			"target":34962
		},
		{
			"buffer":0,
			"byteLength":1536,
			"byteOffset":25184,
			"target":34962
		},
		{
			"buffer":0,
			"byteLength":1024,
			"byteOffset":26720,
			"target":34962
		},
		{
			"buffer":0,
			"byteLength":372,
			"byteOffset":27744,
			"target":34963
		},
		{
			"buffer":0,
			"byteLength":1536,
			"byteOffset":28116,
			"target":34962
		},
		{
			"buffer":0,
			"byteLength":1536,
			"byteOffset":29652,
			"target":34962
		},
		{
			"buffer":0,
			"byteLength":1024,
			"byteOffset":31188,
			"target":34962
		},
		{
			"buffer":0,
			"byteLength":1536,
			"byteOffset":32212,
			"target":34962
		},
		{
			"buffer":0,
			"byteLength":1536,
			"byteOffset":33748,
			"target":34962
		},
		{
			"buffer":0,
			"byteLength":1024,
			"byteOffset":35284,
			"target":34962
		},
		{
			"buffer":0,
			"byteLength":1536,
			"byteOffset":36308,
			"target":34962
		},
		{
			"buffer":0,
			"byteLength":1536,
			"byteOffset":37844,
			"target":34962
		},
		{
			"buffer":0,
			"byteLength":1024,
			"byteOffset":39380,
			"target":34962
		},
		{
			"buffer":0,
			"byteLength":6708,
			"byteOffset":40404,
			"target":34962
		},
		{
			"buffer":0,
			"byteLength":6708,
			"byteOffset":47112,
			"target":34962
		},
		{
			"buffer":0,
			"byteLength":4472,
			"byteOffset":53820,
			"target":34962
		},
		{
			"buffer":0,
			"byteLength":5760,
			"byteOffset":58292,
			"target":34963
		},
		{
			"buffer":0,
			"byteLength":6708,
			"byteOffset":64052,
			"target":34962
		},
		{
			"buffer":0,
			"byteLength":6708,
			"byteOffset":70760,
			"target":34962
		},
		{
			"buffer":0,
			"byteLength":4472,
			"byteOffset":77468,
			"target":34962
		}
	],
	"buffers":[
		{
			"byteLength":81940,
			"uri":"ovalito_avatar.bin"
		}
	]
}
